<svg xmlns="http://www.w3.org/2000/svg" width="19" height="18" viewBox="0 0 19 18" fill="none">
  <path d="M9.19565 0C4.11752 0 0 4.02991 0 9C0 13.9701 4.11752 18 9.19565 18C14.2738 18 18.3913 13.9701 18.3913 9C18.3913 4.02991 14.2738 0 9.19565 0ZM7.55357 12.0536C7.55357 12.142 7.47968 12.2143 7.38936 12.2143H6.40411C6.3138 12.2143 6.23991 12.142 6.23991 12.0536V5.94643C6.23991 5.85804 6.3138 5.78571 6.40411 5.78571H7.38936C7.47968 5.78571 7.55357 5.85804 7.55357 5.94643V12.0536ZM12.1514 12.0536C12.1514 12.142 12.0775 12.2143 11.9872 12.2143H11.0019C10.9116 12.2143 10.8377 12.142 10.8377 12.0536V5.94643C10.8377 5.85804 10.9116 5.78571 11.0019 5.78571H11.9872C12.0775 5.78571 12.1514 5.85804 12.1514 5.94643V12.0536Z" fill="white"/>
</svg>