<svg width="372" height="397" viewBox="0 0 372 397" fill="none" xmlns="http://www.w3.org/2000/svg">
<path d="M329.658 219.362L341.607 219.111L347.497 219.012C349.457 218.968 351.399 219.012 353.36 218.959L352.957 219.362L352.912 209.345L353.36 209.793L341.509 209.73C337.552 209.73 333.605 209.632 329.658 209.587L329.899 209.345C329.899 210.984 329.819 212.63 329.783 214.295L329.658 219.362ZM329.658 219.362L329.523 214.403C329.523 212.729 329.425 211.046 329.407 209.345V209.068H329.658C333.605 209.068 337.552 208.934 341.509 208.925L353.36 208.871H353.807V209.319L353.753 219.335V219.809H353.36C351.355 219.809 349.359 219.809 347.362 219.764L341.401 219.666L329.658 219.362Z" fill="#EBEBEB"/>
<path d="M342.878 231.99L354.827 231.739L360.717 231.641C362.677 231.596 364.628 231.641 366.58 231.587L366.177 231.99V221.974L366.625 222.421L354.774 222.359C350.817 222.359 346.87 222.26 342.923 222.215L343.164 221.974C343.164 223.612 343.084 225.259 343.048 226.924L342.878 231.99ZM342.878 231.99L342.753 227.031C342.708 225.357 342.645 223.674 342.627 221.974V221.732H342.878C346.825 221.687 350.773 221.598 354.729 221.589L366.58 221.535H367.027V221.983L366.974 231.999V232.402H366.58C364.584 232.402 362.579 232.402 360.583 232.357L354.621 232.258L342.878 231.99Z" fill="#EBEBEB"/>
<path d="M316.383 231.984H340.085V221.968H316.383V231.984Z" fill="#EBEBEB"/>
<path d="M4.67747 301.13L16.6359 300.88L22.5255 300.781C24.4768 300.781 26.4281 300.781 28.3794 300.728L27.9856 301.13L27.9319 291.114L28.3794 291.562L16.5284 291.499C12.5811 291.499 8.63376 291.401 4.67747 291.356L4.91914 291.114C4.91914 292.752 4.84753 294.399 4.80278 296.064L4.67747 301.13ZM4.67747 301.13L4.55215 296.172C4.5074 294.498 4.45369 292.815 4.43579 291.114V290.873H4.67747C8.63376 290.828 12.5811 290.738 16.5284 290.729L28.3794 290.676H28.827V291.123V301.139V301.542H28.4242C26.4281 301.542 24.4231 301.542 22.436 301.497L16.4568 301.381L4.67747 301.13Z" fill="#EBEBEB"/>
<path d="M17.9069 313.75H41.6089V303.734H17.9069V313.75Z" fill="#EBEBEB"/>
<path d="M66.0893 114.061L78.0477 113.811L83.9374 113.712C85.8887 113.667 87.84 113.712 89.7913 113.667L89.3975 114.061L89.3437 104.045L89.7913 104.493L77.9403 104.439C73.993 104.439 70.0367 104.341 66.0893 104.287L66.331 104.045C66.331 105.683 66.2594 107.339 66.2146 109.004L66.0893 114.061ZM66.0893 114.061L65.964 109.111C65.964 107.438 65.8656 105.746 65.8477 104.045V103.804H66.0893C70.0367 103.759 73.993 103.66 77.9403 103.66L89.7913 103.598H90.2388V104.045L90.1941 114.061V114.464H89.8002C87.8042 114.464 85.7992 114.464 83.8121 114.41L77.8508 114.312L66.0893 114.061Z" fill="#EBEBEB"/>
<path d="M17.7817 27.4883L41.4836 27.4883V17.4722L17.7817 17.4722V27.4883Z" fill="#EBEBEB"/>
<path d="M4.56972 40.1198L16.5192 39.8961L22.4088 39.7976C24.3691 39.7976 26.3114 39.7976 28.2717 39.7976L27.8689 40.1914V30.1754L28.3164 30.6229L16.4565 30.4976C12.5002 30.4976 8.55286 30.3992 4.60552 30.3455L4.84719 30.1038C4.84719 31.7418 4.76664 33.3888 4.73084 35.0626L4.56972 40.1198ZM4.56972 40.1198L4.43545 35.17C4.43545 33.4962 4.33699 31.8045 4.31909 30.1038V29.8621H4.56972C8.51706 29.8621 12.4644 29.7189 16.4207 29.71L28.2717 29.6562H28.7192V30.1038L28.6655 40.1198V40.5226H28.2717C26.2667 40.5226 24.2706 40.5226 22.2746 40.4689L16.3133 40.3705L4.56972 40.1198Z" fill="#EBEBEB"/>
<path d="M329.658 27.4909L341.607 27.2403L347.497 27.1418C349.457 27.1418 351.399 27.1418 353.36 27.1418L352.957 27.5357L352.912 17.5196L353.36 17.9672L341.509 17.9135C337.552 17.9135 333.605 17.815 329.658 17.7613L329.899 17.5196C329.899 19.1577 329.819 20.8046 329.783 22.4784L329.658 27.4909ZM329.658 27.4909L329.523 22.5411C329.523 20.8673 329.425 19.1756 329.407 17.4749V17.2332H329.658C333.605 17.2332 337.552 17.09 341.509 17.081L353.36 17.0273H353.807V17.5196L353.753 27.5357V27.9385H353.36C351.355 27.9385 349.359 27.9385 347.362 27.8848L341.374 27.7416L329.658 27.4909Z" fill="#EBEBEB"/>
<path d="M292.189 152.738H315.891V142.722H292.189V152.738Z" fill="#EBEBEB"/>
<path d="M39.935 79.6407C40.3796 79.3685 40.8907 79.2245 41.4119 79.2245C41.9332 79.2245 42.4443 79.3685 42.8888 79.6407L43.6496 80.0793C43.9092 80.2136 44.1688 80.3478 44.4373 80.4731C44.9099 80.6898 45.3136 81.0324 45.6042 81.4635C45.8947 81.8946 46.0608 82.3974 46.0843 82.9167L46.1917 86.5508L58.0427 86.1838L57.9263 82.5497C57.9144 82.0276 58.0468 81.5123 58.309 81.0607C58.5712 80.609 58.9529 80.2384 59.4122 79.9898C59.9293 79.7189 60.4312 79.4201 60.9159 79.0947C61.3415 78.7944 61.842 78.6179 62.3618 78.5847C62.8816 78.5515 63.4004 78.663 63.8608 78.9067L67.0562 80.6163L72.6595 70.1707L69.464 68.4521C69.0058 68.2053 68.6251 67.8361 68.3643 67.3857C68.1035 66.9353 67.973 66.4213 67.9871 65.9011C68.0062 65.3038 67.9883 64.7059 67.9334 64.1109C67.8758 63.5856 67.968 63.0548 68.1992 62.5796C68.4304 62.1045 68.7913 61.7044 69.2402 61.4256L72.3283 59.5907L66.0627 49.521L63.0015 51.4096C62.5586 51.682 62.0489 51.8262 61.5291 51.8262C61.0092 51.8262 60.4995 51.682 60.0566 51.4096C59.815 51.2574 59.5554 51.1142 59.3048 50.9799C59.0541 50.8457 58.7856 50.7025 58.5171 50.5861C58.0432 50.3688 57.6386 50.0247 57.348 49.5919C57.0573 49.1591 56.892 48.6544 56.8701 48.1336L56.7358 44.4727L44.8849 44.8396L45.0012 48.42C45.0173 48.9429 44.8866 49.4598 44.624 49.9122C44.3614 50.3646 43.9774 50.7345 43.5154 50.9799C42.9984 51.251 42.4964 51.5498 42.0116 51.875C41.5869 52.1772 41.0862 52.3549 40.566 52.3881C40.0457 52.4214 39.5265 52.3088 39.0668 52.063L35.8713 50.3534L30.2681 60.8796L33.4635 62.5982C33.9215 62.8446 34.3015 63.2139 34.5608 63.6646C34.8202 64.1153 34.9486 64.6295 34.9315 65.1492C34.9201 65.7466 34.941 66.3442 34.9941 66.9394C35.0506 67.4646 34.958 67.995 34.7269 68.4699C34.4957 68.9449 34.1354 69.3451 33.6873 69.6247L30.5993 71.5401L36.8649 81.6099L39.935 79.6407ZM42.8978 60.9333C43.8024 59.2388 45.1892 57.8505 46.8828 56.9442C48.5764 56.0378 50.5007 55.654 52.4124 55.8414C54.3242 56.0288 56.1374 56.7788 57.6228 57.9967C59.1082 59.2147 60.1991 60.8457 60.7575 62.6837C61.3159 64.5216 61.3167 66.4838 60.7599 68.3222C60.203 70.1606 59.1135 71.7926 57.6291 73.0118C56.1446 74.2309 54.332 74.9825 52.4205 75.1714C50.5089 75.3604 48.5842 74.9782 46.8899 74.0732C44.62 72.8582 42.9248 70.7923 42.1764 68.3289C41.428 65.8654 41.6874 63.2057 42.8978 60.9333Z" fill="#EBEBEB"/>
<path d="M350.325 201.496C350.511 201.18 350.781 200.922 351.105 200.752C351.429 200.581 351.794 200.504 352.16 200.529H353.386C353.744 200.51 354.099 200.59 354.415 200.758C354.73 200.927 354.994 201.179 355.176 201.487L356.447 203.698L363.608 199.545L362.337 197.343C362.155 197.026 362.065 196.664 362.078 196.299C362.09 195.933 362.205 195.579 362.409 195.275C362.635 194.923 362.841 194.565 363.026 194.201C363.192 193.87 363.448 193.591 363.765 193.398C364.081 193.205 364.446 193.105 364.816 193.109H367.358V184.803H364.816C364.446 184.809 364.082 184.71 363.766 184.519C363.449 184.327 363.193 184.05 363.026 183.72C362.842 183.35 362.635 182.991 362.409 182.645C362.205 182.342 362.09 181.987 362.078 181.622C362.065 181.256 362.155 180.895 362.337 180.578L363.608 178.367L356.447 174.223L355.167 176.434C354.986 176.743 354.723 176.997 354.407 177.167C354.092 177.338 353.735 177.418 353.377 177.4C353.171 177.4 352.965 177.4 352.76 177.4C352.554 177.4 352.357 177.4 352.151 177.4C351.786 177.423 351.422 177.344 351.098 177.174C350.774 177.003 350.504 176.747 350.316 176.434L349.045 174.223L341.884 178.367L343.155 180.569C343.337 180.886 343.427 181.248 343.414 181.613C343.402 181.978 343.287 182.333 343.084 182.636C342.863 182.989 342.657 183.347 342.466 183.711C342.301 184.043 342.045 184.322 341.728 184.515C341.412 184.708 341.047 184.808 340.676 184.803H338.134V193.109H340.676C341.047 193.105 341.411 193.205 341.728 193.398C342.044 193.591 342.3 193.87 342.466 194.201C342.651 194.571 342.857 194.93 343.084 195.275C343.287 195.579 343.402 195.933 343.414 196.299C343.427 196.664 343.337 197.026 343.155 197.343L341.884 199.545L349.045 203.698L350.325 201.496ZM345.966 188.965C345.964 187.619 346.362 186.303 347.108 185.183C347.854 184.063 348.916 183.19 350.159 182.674C351.402 182.157 352.77 182.021 354.09 182.283C355.41 182.544 356.623 183.191 357.576 184.142C358.528 185.093 359.177 186.306 359.44 187.625C359.703 188.945 359.569 190.313 359.054 191.557C358.54 192.801 357.668 193.864 356.549 194.611C355.43 195.359 354.114 195.758 352.769 195.758C350.968 195.754 349.243 195.036 347.97 193.763C346.697 192.49 345.98 190.765 345.975 188.965H345.966Z" fill="#EBEBEB"/>
<path d="M6.05593 95.9906C6.37253 96.1755 6.63094 96.4454 6.80182 96.7697C6.9727 97.0941 7.0492 97.4599 7.02262 97.8255C7.02262 98.0225 7.02262 98.2283 7.02262 98.4342C7.02262 98.6401 7.02262 98.8459 7.02262 99.0518C7.04161 99.4092 6.9624 99.765 6.79357 100.081C6.62474 100.396 6.37273 100.659 6.06487 100.842L3.854 102.113L8.00722 109.274L10.1912 108.065C10.5089 107.885 10.8702 107.797 11.2352 107.809C11.6001 107.822 11.9544 107.935 12.2589 108.137C12.608 108.361 12.966 108.576 13.333 108.764C13.659 108.925 13.9338 109.173 14.1266 109.481C14.3194 109.79 14.4228 110.145 14.425 110.509V113.051H22.7225V110.509C22.7229 110.146 22.8244 109.791 23.0157 109.482C23.2071 109.174 23.4806 108.925 23.8055 108.764C24.1756 108.576 24.5343 108.367 24.8796 108.137C25.1841 107.935 25.5384 107.822 25.9034 107.809C26.2683 107.797 26.6296 107.885 26.9473 108.065L29.1582 109.336L33.3024 102.176L31.0916 100.896C30.7841 100.712 30.5319 100.449 30.3617 100.134C30.1916 99.8186 30.1097 99.4633 30.1249 99.1055C30.1249 98.8996 30.1249 98.7027 30.1249 98.4969C30.1249 98.291 30.1249 98.0851 30.1249 97.8882C30.1014 97.523 30.1793 97.1584 30.3498 96.8346C30.5204 96.5108 30.7771 96.2404 31.0916 96.0533L33.3024 94.7822L29.1582 87.6215L26.9563 88.8925C26.6392 89.0746 26.2776 89.1644 25.9122 89.1517C25.5468 89.1391 25.1923 89.0245 24.8886 88.8209C24.5425 88.6002 24.1845 88.3943 23.8145 88.2033C23.4823 88.0381 23.2036 87.7824 23.0104 87.4657C22.8172 87.149 22.7174 86.7841 22.7225 86.4131V83.8711H14.4429V86.4131C14.4469 86.7839 14.3467 87.1483 14.1536 87.4648C13.9605 87.7814 13.6824 88.0373 13.3509 88.2033C12.981 88.3878 12.6223 88.5941 12.2768 88.8209C11.9714 89.0243 11.6154 89.1387 11.2486 89.1514C10.8819 89.164 10.5189 89.0744 10.2002 88.8925L8.00722 87.6215L3.854 94.7822L6.05593 95.9906ZM18.5872 91.6315C19.933 91.6297 21.2491 92.0272 22.369 92.7736C23.4888 93.52 24.3621 94.5818 24.8784 95.8247C25.3946 97.0676 25.5306 98.4356 25.2692 99.7558C25.0077 101.076 24.3605 102.289 23.4095 103.241C22.4585 104.194 21.2464 104.842 19.9265 105.105C18.6067 105.369 17.2385 105.235 15.9949 104.72C14.7514 104.205 13.6884 103.333 12.9405 102.214C12.1926 101.096 11.7934 99.78 11.7934 98.4342C11.7958 96.6323 12.512 94.9047 13.7853 93.6297C15.0587 92.3548 16.7853 91.6363 18.5872 91.6315Z" fill="#EBEBEB"/>
<path d="M79.9722 396.119C115.862 396.119 144.956 391.956 144.956 386.819C144.956 381.683 115.862 377.52 79.9722 377.52C44.0829 377.52 14.9888 381.683 14.9888 386.819C14.9888 391.956 44.0829 396.119 79.9722 396.119Z" fill="#EBEBEB"/>
<path d="M316.455 287.146C309.832 273.532 298.24 266.559 285.127 270.399C272.014 274.239 270.036 292.481 279.757 297.082C289.477 301.682 299.261 288.256 304.416 285.49C309.572 282.724 316.455 287.146 316.455 287.146Z" fill="#7B58F4"/>
<path d="M322.873 323.391C322.873 321.753 322.775 320.106 322.712 318.468C322.596 315.192 322.488 311.916 322.372 308.622C322.148 302.634 321.477 296.745 319.015 291.222C316.822 286.212 313.157 281.989 308.507 279.111C306.783 278.067 304.925 277.263 302.984 276.721C301.228 274.924 298.985 273.68 296.531 273.141C293.507 272.527 290.398 272.448 287.347 272.908C287.231 272.908 287.24 273.096 287.347 273.078C290.26 272.71 293.216 272.919 296.047 273.696C297.256 274.035 298.429 274.494 299.547 275.066C300.251 275.444 300.927 275.871 301.57 276.346C298.934 275.8 296.211 275.828 293.586 276.426C292.641 276.648 291.716 276.947 290.82 277.321C290.103 277.166 289.369 277.103 288.636 277.133C287.682 277.169 286.734 277.304 285.808 277.536C283.917 278.069 282.11 278.861 280.437 279.89C280.339 279.944 280.437 280.087 280.526 280.033C282.175 279.135 283.94 278.469 285.772 278.055C286.656 277.857 287.553 277.725 288.457 277.661C288.958 277.634 289.46 277.634 289.961 277.661C286.236 279.381 283.243 282.365 281.511 286.084C281.466 286.183 281.619 286.272 281.663 286.165C282.693 284.014 284.193 282.121 286.052 280.628C287.911 279.134 290.082 278.078 292.404 277.536C292.691 277.464 292.986 277.429 293.299 277.366C293.201 277.787 293.219 278.261 293.165 278.682C293.076 279.344 292.968 280.006 292.834 280.66C292.56 282.011 292.204 283.344 291.769 284.652C291.327 285.972 290.797 287.26 290.185 288.51C289.601 289.839 288.858 291.092 287.974 292.242C287.963 292.251 287.956 292.263 287.95 292.275C287.945 292.288 287.943 292.301 287.944 292.315C287.945 292.328 287.949 292.342 287.955 292.353C287.962 292.365 287.971 292.375 287.982 292.383C287.994 292.391 288.006 292.396 288.02 292.398C288.033 292.4 288.047 292.399 288.06 292.395C288.073 292.391 288.085 292.384 288.095 292.374C288.104 292.365 288.112 292.353 288.117 292.341C288.896 291.115 289.809 289.978 290.525 288.707C291.221 287.488 291.819 286.216 292.315 284.903C292.818 283.578 293.207 282.212 293.478 280.821C293.631 280.087 293.738 279.344 293.828 278.601C293.912 278.156 293.94 277.702 293.908 277.25C295.443 277.019 297.002 276.989 298.545 277.16C297.972 280.409 297.345 283.793 295.528 286.612C295.466 286.711 295.627 286.8 295.68 286.693C296.532 285.197 297.279 283.645 297.918 282.047C298.521 280.497 298.9 278.87 299.046 277.214C301.743 277.575 304.346 278.447 306.717 279.783C311.178 282.381 314.741 286.278 316.93 290.953C319.235 295.993 320.521 301.438 320.716 306.975C321.146 313.93 321.235 320.939 321.933 327.876C321.978 328.332 322.694 328.484 322.828 327.965C322.982 326.445 322.997 324.914 322.873 323.391Z" fill="#263238"/>
<path d="M307.558 278.032C307.121 277.501 306.616 277.032 306.054 276.635C305.508 276.188 304.953 275.74 304.372 275.364C303.225 274.566 301.955 273.961 300.612 273.574C300.505 273.574 300.46 273.726 300.612 273.744C301.961 274.079 303.225 274.688 304.327 275.534C304.882 275.946 305.41 276.376 305.929 276.832C306.389 277.315 306.899 277.747 307.451 278.121C307.504 278.247 307.63 278.13 307.558 278.032Z" fill="#263238"/>
<path d="M286.416 282.961C285.32 284.238 284.304 285.58 283.373 286.98C282.471 288.392 281.715 289.891 281.117 291.456C281.117 291.5 281.171 291.527 281.197 291.456C282.724 288.491 284.521 285.674 286.568 283.042C286.613 282.997 286.487 282.881 286.416 282.961Z" fill="#263238"/>
<path d="M300.666 281.618C300.527 282.468 300.277 283.295 299.923 284.08C299.556 284.838 299.135 285.568 298.661 286.264C298.661 286.308 298.661 286.353 298.732 286.317C299.878 285.004 300.61 283.382 300.836 281.654C300.854 281.564 300.684 281.502 300.666 281.618Z" fill="#263238"/>
<path d="M321.951 287.482C321.951 287.482 331.332 275.685 349.43 279.865C366.643 283.839 374.582 315.4 357.2 319.168C339.817 322.937 342.878 293.748 336.532 288.789C331.887 285.146 325.2 285.934 321.951 287.482Z" fill="#7B58F4"/>
<path d="M363.42 297.107C362.24 296.072 360.993 295.115 359.688 294.242C358.459 293.404 357.122 292.736 355.714 292.255C355.006 291.184 354.216 290.17 353.351 289.221C351.752 287.507 349.909 286.038 347.882 284.862H348.419C349.376 284.813 350.335 284.813 351.292 284.862C353.225 284.984 355.12 285.454 356.886 286.249C356.985 286.249 357.056 286.133 356.958 286.097C355.17 285.324 353.299 284.759 351.381 284.414C350.448 284.249 349.501 284.168 348.553 284.173C348.045 284.175 347.537 284.205 347.031 284.262H346.736C345.075 283.426 343.325 282.783 341.518 282.347L342.028 282.203C342.915 282.012 343.811 281.866 344.713 281.765C346.517 281.559 348.34 281.586 350.137 281.845C350.155 281.84 350.171 281.828 350.182 281.813C350.193 281.798 350.199 281.779 350.199 281.76C350.199 281.742 350.193 281.723 350.182 281.708C350.171 281.693 350.155 281.681 350.137 281.675C348.32 281.461 346.488 281.389 344.659 281.461C343.125 281.503 341.598 281.701 340.103 282.051C339.015 281.85 337.915 281.724 336.809 281.675C330.49 281.407 323.607 283.761 319.722 288.952C315.837 294.144 315.077 301.072 314.352 307.338C313.29 316.071 313.059 324.885 313.662 333.662C313.662 334.172 314.432 334.083 314.441 333.591C314.683 326.152 314.942 318.705 315.658 311.294C315.99 307.857 316.348 304.411 316.921 301.009C317.34 298.081 318.181 295.229 319.418 292.542C320.762 289.796 322.889 287.509 325.531 285.972C328.181 284.445 331.138 283.528 334.187 283.287C336.917 283.058 339.666 283.315 342.305 284.047C342.21 284.576 342.195 285.116 342.261 285.65C342.323 286.322 342.458 286.985 342.663 287.628C342.856 288.247 343.107 288.847 343.415 289.418C343.755 290.035 344.176 290.59 344.552 291.208C344.606 291.298 344.758 291.208 344.686 291.11C343.943 290.043 343.461 288.817 343.281 287.529C343.174 286.919 343.102 286.304 343.066 285.685C343.066 285.22 343.066 284.746 343.066 284.28C345.938 285.165 348.619 286.579 350.97 288.451C351.408 288.809 351.865 289.176 352.25 289.561C351.653 290.118 351.135 290.753 350.71 291.45C350.091 292.356 349.551 293.314 349.099 294.314C348.268 296.32 347.706 298.427 347.425 300.58C347.425 300.687 347.586 300.723 347.595 300.58C347.933 298.488 348.633 296.47 349.663 294.618C350.139 293.69 350.674 292.793 351.265 291.933C351.569 291.503 351.883 291.038 352.214 290.653C352.393 290.429 352.59 290.197 352.751 289.955C354.881 292.04 356.621 294.489 357.889 297.187C357.024 298.129 356.314 299.201 355.785 300.365C355.137 301.517 354.572 302.713 354.094 303.945C353.219 306.356 352.495 308.82 351.927 311.321C351.927 311.428 352.08 311.464 352.098 311.321C352.652 308.799 353.514 306.355 354.666 304.044C355.212 302.916 355.785 301.797 356.385 300.696C357.01 299.672 357.577 298.614 358.086 297.527C359.291 300.17 359.992 303.014 360.153 305.914C360.153 306.022 360.332 306.013 360.323 305.914C359.99 301.366 358.599 296.958 356.26 293.043C357.37 293.517 358.48 293.938 359.545 294.547C360.906 295.28 362.169 296.182 363.304 297.232C363.385 297.313 363.501 297.178 363.42 297.107Z" fill="#263238"/>
<path d="M350.137 297.766C349.6 299.556 348.911 301.293 348.419 303.137C347.931 304.856 347.669 306.631 347.64 308.418C347.64 308.471 347.721 308.471 347.73 308.418C348.221 304.804 349.091 301.252 350.325 297.82C350.329 297.808 350.33 297.795 350.329 297.782C350.327 297.769 350.323 297.757 350.317 297.746C350.311 297.734 350.302 297.724 350.292 297.716C350.282 297.709 350.271 297.703 350.258 297.699C350.246 297.696 350.233 297.694 350.22 297.696C350.208 297.697 350.195 297.701 350.184 297.708C350.173 297.714 350.163 297.722 350.155 297.732C350.147 297.742 350.141 297.754 350.137 297.766Z" fill="#263238"/>
<path d="M361.613 293.339C360.902 292.654 360.093 292.078 359.214 291.629C358.319 291.221 357.391 290.892 356.439 290.645C356.332 290.645 356.296 290.788 356.439 290.815C357.381 291.054 358.285 291.425 359.124 291.916C359.98 292.36 360.803 292.865 361.586 293.428C361.595 293.426 361.604 293.422 361.61 293.415C361.617 293.409 361.622 293.4 361.625 293.391C361.628 293.382 361.628 293.373 361.626 293.363C361.624 293.354 361.619 293.346 361.613 293.339Z" fill="#263238"/>
<path d="M330.866 271.726C330.866 271.726 332.594 250.548 348.338 243.682C361.487 237.954 369.015 252.723 359.724 261.772C352.205 269.094 340.148 265.791 330.866 271.726Z" fill="#7B58F4"/>
<path d="M356.815 247.787C354.416 248.757 352.076 249.866 349.806 251.108C347.923 252.187 346.108 253.383 344.373 254.688C344.633 254.151 344.856 253.596 345.125 253.068C345.537 252.253 345.975 251.448 346.459 250.678C347.427 249.073 348.594 247.596 349.931 246.283C350.012 246.211 349.878 246.086 349.806 246.167C348.473 247.48 347.251 248.902 346.154 250.418C345.612 251.187 345.113 251.985 344.659 252.808C344.195 253.571 343.837 254.393 343.594 255.252L343.424 255.377C340.674 257.568 338.155 260.033 335.905 262.735C335.95 262.529 335.986 262.323 336.049 262.126C336.344 261.097 336.657 260.067 336.997 259.047C337.679 256.875 338.635 254.8 339.844 252.871C339.907 252.781 339.754 252.692 339.692 252.79C338.456 254.72 337.356 256.733 336.398 258.814C335.958 259.831 335.593 260.878 335.306 261.947C335.078 262.642 334.908 263.355 334.796 264.077C334.106 264.972 333.435 265.823 332.8 266.763C326.042 276.385 322.649 288.021 321.835 299.675C321.596 303.146 321.536 306.626 321.656 310.103C321.671 313.612 321.971 317.114 322.551 320.575C322.595 320.799 322.936 320.728 322.936 320.513C322.855 317.452 322.542 314.408 322.479 311.347C322.421 308.277 322.519 305.206 322.775 302.146C323.268 296.033 324.421 289.992 326.212 284.127C328.04 278.117 330.736 272.406 334.214 267.174C334.876 267.04 335.538 266.861 336.192 266.691C336.845 266.521 337.767 266.288 338.546 266.073C340.058 265.683 341.527 265.143 342.932 264.462C342.941 264.456 342.949 264.449 342.956 264.44C342.962 264.431 342.967 264.42 342.969 264.41C342.972 264.399 342.972 264.388 342.97 264.377C342.969 264.366 342.965 264.355 342.959 264.346C342.953 264.337 342.945 264.328 342.936 264.322C342.927 264.316 342.917 264.311 342.906 264.308C342.895 264.306 342.884 264.306 342.873 264.307C342.862 264.309 342.852 264.313 342.842 264.319C341.447 265.076 339.934 265.594 338.367 265.85C337.132 266.1 335.852 266.252 334.617 266.539C335.762 264.874 336.98 263.263 338.277 261.723C341.277 261.995 344.301 261.771 347.228 261.061C348.786 260.684 350.316 260.206 351.811 259.629C353.395 259.02 354.881 258.241 356.439 257.588C356.459 257.579 356.475 257.561 356.482 257.54C356.49 257.519 356.489 257.496 356.479 257.476C356.47 257.456 356.452 257.44 356.431 257.433C356.41 257.425 356.387 257.426 356.367 257.436C353.549 258.972 350.472 259.979 347.291 260.408C344.482 260.859 341.642 261.092 338.797 261.106C339.915 259.826 341.07 258.573 342.305 257.4C346.441 253.462 351.355 249.846 356.797 247.957C356.967 247.921 356.913 247.751 356.815 247.787Z" fill="#263238"/>
<path d="M343.997 247.861C343.285 248.752 342.639 249.695 342.064 250.68C341.477 251.719 341.012 252.821 340.676 253.965C340.676 253.965 340.676 254.028 340.739 253.965C341.267 252.927 341.706 251.844 342.243 250.815C342.763 249.794 343.393 248.833 344.122 247.95C344.194 247.888 344.06 247.771 343.997 247.861Z" fill="#263238"/>
<path d="M358.641 254.902C357.617 255.471 356.533 255.925 355.409 256.253C354.332 256.613 353.235 256.912 352.124 257.149C352.071 257.149 352.08 257.247 352.124 257.238C353.285 257.116 354.429 256.867 355.535 256.495C356.624 256.08 357.688 255.602 358.721 255.063C358.829 255 358.739 254.848 358.641 254.902Z" fill="#263238"/>
<path d="M318.621 267.926C318.523 268.821 316.24 260.229 302.921 252.594C290.838 245.657 276.4 227.612 288.26 216.208C297.828 207.007 323.043 227.066 318.621 267.926Z" fill="#7B58F4"/>
<path d="M327.787 317.253C327.592 308.308 326.887 299.381 325.675 290.516C324.622 282.358 322.735 274.328 320.045 266.555C319.06 263.753 317.923 261.005 316.697 258.293C316.764 257.237 316.746 256.177 316.643 255.124C316.581 253.764 316.455 252.439 316.33 251.061C316.205 249.682 316.07 248.375 315.909 247.006C315.748 245.637 315.462 244.321 315.408 242.969C315.412 242.956 315.414 242.941 315.411 242.927C315.409 242.913 315.404 242.9 315.395 242.889C315.387 242.877 315.376 242.868 315.364 242.861C315.351 242.855 315.337 242.852 315.323 242.852C315.309 242.852 315.295 242.855 315.282 242.861C315.27 242.868 315.259 242.877 315.25 242.889C315.242 242.9 315.237 242.913 315.234 242.927C315.232 242.941 315.233 242.956 315.238 242.969C315.503 244.384 315.662 245.818 315.712 247.257C315.82 248.563 315.891 249.87 315.927 251.177C315.972 252.493 315.927 253.8 315.927 255.116C315.927 255.581 315.927 256.082 315.882 256.592C314.638 253.907 313.296 251.338 311.837 248.805C312.732 243.282 311.568 237.509 310.44 232.112C310.44 232.004 310.252 232.058 310.279 232.165C310.837 234.985 311.137 237.849 311.174 240.722C311.228 242.987 311.12 245.252 311.112 247.516C310.789 246.979 310.476 246.433 310.145 245.896C308.417 243.077 306.564 240.311 304.613 237.634C304.773 236.326 304.731 235.001 304.488 233.705C304.269 232.249 303.946 230.81 303.521 229.4C303.092 227.994 302.626 226.607 302.044 225.246C301.462 223.886 300.702 222.516 300.147 221.12C300.093 220.995 299.923 221.12 299.986 221.183C300.697 222.509 301.256 223.911 301.65 225.363C302.095 226.722 302.46 228.105 302.742 229.507C303.029 230.903 303.253 232.309 303.45 233.732C303.584 234.627 303.664 235.638 303.825 236.578C300.976 232.75 297.862 229.125 294.508 225.73C294.427 225.649 294.311 225.774 294.382 225.855C299.459 231.561 303.993 237.728 307.925 244.276L308.346 245.01C307.612 244.553 306.77 244.186 306.081 243.802L302.205 241.671L298.428 239.613C297.784 239.255 297.148 238.879 296.486 238.538C295.7 238.188 294.946 237.771 294.23 237.294C294.212 237.281 294.19 237.276 294.168 237.279C294.146 237.282 294.127 237.294 294.114 237.312C294.101 237.33 294.095 237.352 294.099 237.374C294.102 237.396 294.114 237.415 294.132 237.429C295.412 238.136 296.548 239.219 297.784 239.971C299.019 240.722 300.29 241.528 301.588 242.253C303.951 243.569 306.52 244.518 308.856 245.887C310.467 248.716 311.959 251.613 313.331 254.578C311.917 253.683 310.476 252.788 309.008 251.983C308.068 251.455 307.119 250.935 306.162 250.434C305.21 249.994 304.31 249.45 303.476 248.814C303.459 248.806 303.44 248.803 303.421 248.807C303.402 248.81 303.385 248.82 303.372 248.834C303.359 248.848 303.351 248.866 303.349 248.885C303.347 248.904 303.351 248.923 303.36 248.939C304.911 250.342 306.631 251.544 308.48 252.52C310.19 253.522 311.917 254.489 313.698 255.357C315.119 258.484 316.401 261.662 317.547 264.89C323.15 280.76 325.209 297.605 326.194 314.335C326.489 319.32 326.641 324.306 326.704 329.3C326.767 334.295 326.498 339.272 326.507 344.257C326.507 344.401 326.749 344.436 326.776 344.257C327.375 339.836 327.474 335.307 327.671 330.885C327.868 326.463 327.885 321.791 327.787 317.253Z" fill="#263238"/>
<path d="M303.593 245.418C301.163 244.347 298.801 243.127 296.521 241.766C294.209 240.459 291.965 239.034 289.799 237.496C289.799 237.496 289.728 237.496 289.755 237.559C291.801 239.196 293.957 240.691 296.208 242.034C298.568 243.351 301.007 244.52 303.512 245.534C303.62 245.615 303.7 245.462 303.593 245.418Z" fill="#263238"/>
<path d="M307.451 227.481C307.254 226.711 307.012 225.951 306.752 225.199C306.76 225.185 306.764 225.17 306.764 225.154C306.764 225.138 306.76 225.123 306.752 225.109C306.582 224.68 306.403 224.214 306.233 223.829L306.171 223.668C306.171 223.588 306.099 223.507 306.072 223.426C306.045 223.346 306.018 223.426 306.027 223.426C306.036 223.426 306.108 223.722 306.153 223.865C306.172 223.947 306.196 224.027 306.224 224.107C307.107 227.067 307.768 230.089 308.202 233.147C308.202 233.246 308.364 233.246 308.355 233.147C308.231 231.234 307.929 229.337 307.451 227.481Z" fill="#263238"/>
<path d="M341.858 320.48L340.909 331.741L338 366.085H306.842L303.933 331.741L302.984 320.48H341.858Z" fill="#37474F"/>
<path d="M341.858 320.48L340.909 331.741H303.933L302.984 320.48H341.858Z" fill="#263238"/>
<path d="M344.91 315.957H299.923V326.761H344.91V315.957Z" fill="#37474F"/>
<path d="M4.31934 366.084L49.6466 365.869L94.9739 365.789L185.629 365.637L276.283 365.78L321.61 365.86L366.938 366.084L321.61 366.299L276.283 366.38L185.629 366.532L94.9739 366.38L49.6466 366.299L4.31934 366.084Z" fill="#263238"/>
<path d="M261.273 23.3945H110.003C107.969 23.4074 105.958 23.8215 104.085 24.6132C102.212 25.4049 100.514 26.5586 99.088 28.008C97.6618 29.4575 96.5358 31.1742 95.7746 33.0597C95.0133 34.9453 94.6318 36.9626 94.6519 38.9959V350.487C94.6161 354.585 96.2093 358.53 99.0812 361.454C101.953 364.378 105.869 366.042 109.967 366.079H261.237C263.27 366.065 265.28 365.651 267.153 364.859C269.026 364.068 270.725 362.915 272.152 361.467C273.579 360.019 274.707 358.304 275.471 356.42C276.235 354.536 276.621 352.52 276.606 350.487V38.9959C276.623 36.9647 276.241 34.9499 275.48 33.0666C274.719 31.1833 273.594 29.4683 272.17 28.0195C270.747 26.5708 269.051 25.4167 267.182 24.6231C265.312 23.8296 263.304 23.4121 261.273 23.3945ZM267.028 340.856C267.028 349.055 260.888 355.687 253.315 355.687H117.951C110.361 355.687 104.22 349.055 104.22 340.856V50.7932C104.22 34.0908 110.361 33.2763 117.951 33.2763H145.063C146.639 33.2763 147.928 35.0665 147.928 37.2863V38.2441C147.928 43.4714 150.774 43.4714 154.301 43.4714H216.957C220.475 43.4714 223.303 43.4714 223.303 38.253V37.2863C223.303 35.0665 224.565 33.2763 226.167 33.2763H253.288C260.861 33.2763 267.001 35.4961 267.001 50.7932L267.028 340.856Z" fill="#263238"/>
<path d="M194.177 36.964H177.072C176.933 36.964 176.796 36.9366 176.667 36.8836C176.539 36.8305 176.423 36.7527 176.325 36.6546C176.227 36.5565 176.149 36.4401 176.096 36.312C176.043 36.1838 176.015 36.0465 176.015 35.9078C176.015 35.6276 176.127 35.359 176.325 35.1609C176.523 34.9628 176.791 34.8516 177.072 34.8516H194.177C194.457 34.8516 194.726 34.9628 194.924 35.1609C195.122 35.359 195.233 35.6276 195.233 35.9078C195.233 36.0465 195.206 36.1838 195.153 36.312C195.099 36.4401 195.022 36.5565 194.924 36.6546C194.826 36.7527 194.709 36.8305 194.581 36.8836C194.453 36.9366 194.315 36.964 194.177 36.964Z" fill="white"/>
<path d="M267.082 50.7903V340.853C267.082 349.052 260.941 355.685 253.369 355.685H117.951C110.361 355.685 104.22 349.052 104.22 340.853V50.7903C104.22 34.088 110.361 33.2734 117.951 33.2734H145.063C146.638 33.2734 147.927 35.0636 147.927 37.2834V38.2412C147.927 43.4685 150.774 43.4685 154.3 43.4685H216.957C220.483 43.4685 223.303 43.4685 223.303 38.2501V37.2834C223.303 35.0636 224.574 33.2734 226.176 33.2734H253.297C260.897 33.2734 267.082 35.4933 267.082 50.7903Z" fill="white"/>
<path d="M120.699 61.8651L115.884 57.3628L120.699 52.8516L121.442 53.6482L117.486 57.3628L121.442 61.0774L120.699 61.8651Z" fill="#E5DEFD"/>
<path d="M254.425 54.5543C254.425 54.742 254.37 54.9254 254.265 55.0814C254.161 55.2375 254.013 55.3591 253.839 55.4309C253.666 55.5027 253.475 55.5215 253.291 55.4849C253.107 55.4483 252.938 55.3579 252.805 55.2252C252.673 55.0925 252.582 54.9235 252.546 54.7394C252.509 54.5554 252.528 54.3646 252.6 54.1912C252.672 54.0179 252.793 53.8697 252.949 53.7654C253.105 53.6612 253.289 53.6055 253.476 53.6055C253.601 53.6043 253.725 53.628 253.841 53.6753C253.957 53.7226 254.062 53.7924 254.15 53.8807C254.238 53.9691 254.308 54.0742 254.355 54.1898C254.403 54.3055 254.426 54.4294 254.425 54.5543Z" fill="#E5DEFD"/>
<path d="M254.425 57.9137C254.425 58.1013 254.37 58.2848 254.265 58.4408C254.161 58.5968 254.013 58.7184 253.839 58.7903C253.666 58.8621 253.475 58.8809 253.291 58.8442C253.107 58.8076 252.938 58.7173 252.805 58.5846C252.673 58.4519 252.582 58.2828 252.546 58.0988C252.509 57.9147 252.528 57.724 252.6 57.5506C252.672 57.3772 252.793 57.229 252.949 57.1248C253.105 57.0205 253.289 56.9649 253.476 56.9649C253.601 56.9637 253.725 56.9874 253.841 57.0347C253.957 57.0819 254.062 57.1518 254.15 57.2401C254.238 57.3285 254.308 57.4335 254.355 57.5492C254.403 57.6648 254.426 57.7887 254.425 57.9137Z" fill="#E5DEFD"/>
<path d="M254.425 61.2809C254.425 61.4685 254.37 61.652 254.265 61.808C254.161 61.964 254.013 62.0856 253.839 62.1574C253.666 62.2293 253.475 62.248 253.291 62.2114C253.107 62.1748 252.938 62.0845 252.805 61.9518C252.673 61.8191 252.582 61.65 252.546 61.466C252.509 61.2819 252.528 61.0912 252.6 60.9178C252.672 60.7444 252.793 60.5962 252.949 60.492C253.105 60.3877 253.289 60.3321 253.476 60.3321C253.601 60.3309 253.725 60.3546 253.841 60.4019C253.957 60.4491 254.062 60.519 254.15 60.6073C254.238 60.6957 254.308 60.8007 254.355 60.9164C254.403 61.032 254.426 61.1559 254.425 61.2809Z" fill="#E5DEFD"/>
<path d="M140.382 39.7932L140.122 40.0527L139.97 40.196C139.299 39.5291 138.392 39.1548 137.446 39.1548C136.5 39.1548 135.593 39.5291 134.922 40.196L134.779 40.0438L134.519 39.7842L134.85 39.4888C135.09 39.3028 135.348 39.1409 135.62 39.0055C135.942 38.8431 136.286 38.7285 136.64 38.6654C136.806 38.632 136.973 38.6081 137.142 38.5938H137.589H137.929C138.25 38.6322 138.565 38.7072 138.869 38.8175C139.085 38.8994 139.295 38.9982 139.496 39.1129C139.708 39.2345 139.909 39.3754 140.095 39.5336L140.373 39.7842L140.382 39.7932Z" fill="#E5DEFD"/>
<path d="M135.754 41.0204L135.333 40.6087C135.895 40.0512 136.654 39.7383 137.446 39.7383C138.237 39.7383 138.997 40.0512 139.558 40.6087L139.138 41.0204C138.688 40.5733 138.08 40.3223 137.446 40.3223C136.812 40.3223 136.204 40.5733 135.754 41.0204Z" fill="#E5DEFD"/>
<path d="M138.726 41.4378L138.314 41.8406C138.196 41.7248 138.056 41.6335 137.902 41.572C137.749 41.5106 137.585 41.4802 137.419 41.4825C137.253 41.4793 137.088 41.5102 136.934 41.5733C136.78 41.6364 136.64 41.7304 136.524 41.8495C136.39 41.7063 136.247 41.572 136.112 41.4378C136.28 41.2589 136.482 41.1163 136.707 41.0189C136.932 40.9214 137.174 40.8711 137.419 40.8711C137.664 40.8711 137.907 40.9214 138.131 41.0189C138.356 41.1163 138.559 41.2589 138.726 41.4378Z" fill="#E5DEFD"/>
<path d="M137.822 42.2226C137.822 42.3223 137.782 42.4179 137.712 42.4884C137.641 42.5589 137.546 42.5985 137.446 42.5985C137.397 42.5985 137.349 42.5887 137.303 42.5697C137.258 42.5507 137.217 42.5229 137.183 42.4879C137.149 42.4528 137.122 42.4113 137.104 42.3658C137.086 42.3202 137.078 42.2715 137.079 42.2226C137.079 42.1252 137.118 42.0319 137.186 41.9631C137.255 41.8942 137.349 41.8556 137.446 41.8556C137.495 41.8544 137.544 41.863 137.589 41.8809C137.635 41.8988 137.676 41.9257 137.711 41.9598C137.746 41.994 137.774 42.0349 137.793 42.08C137.812 42.1251 137.822 42.1736 137.822 42.2226Z" fill="#E5DEFD"/>
<path d="M114.836 40.5791C114.836 40.3645 114.9 40.1548 115.019 39.9765C115.139 39.7982 115.308 39.6594 115.507 39.5777C115.705 39.496 115.923 39.475 116.134 39.5176C116.344 39.5601 116.537 39.6641 116.688 39.8165C116.839 39.9689 116.942 40.1627 116.982 40.3734C117.023 40.584 117 40.8021 116.917 40.9998C116.834 41.1976 116.693 41.3661 116.514 41.484C116.335 41.6019 116.125 41.664 115.91 41.6622C115.768 41.6622 115.628 41.6341 115.497 41.5796C115.366 41.525 115.247 41.4451 115.147 41.3444C115.048 41.2437 114.969 41.1243 114.915 40.9929C114.862 40.8616 114.835 40.7209 114.836 40.5791Z" fill="#E5DEFD"/>
<path d="M118.228 40.5808C118.232 40.3674 118.298 40.1598 118.42 39.984C118.541 39.8083 118.711 39.6723 118.909 39.593C119.107 39.5138 119.325 39.4949 119.534 39.5387C119.742 39.5825 119.934 39.687 120.083 39.8392C120.233 39.9913 120.334 40.1843 120.375 40.3939C120.415 40.6035 120.393 40.8203 120.31 41.0172C120.228 41.214 120.089 41.3822 119.911 41.5004C119.734 41.6186 119.525 41.6817 119.311 41.6817C119.168 41.6818 119.025 41.6532 118.893 41.5976C118.76 41.5421 118.64 41.4607 118.539 41.3582C118.438 41.2557 118.359 41.1342 118.306 41.0007C118.252 40.8673 118.226 40.7245 118.228 40.5808Z" fill="#E5DEFD"/>
<path d="M121.63 40.5808C121.634 40.3674 121.7 40.1598 121.821 39.984C121.942 39.8083 122.113 39.6723 122.311 39.593C122.509 39.5138 122.726 39.4949 122.935 39.5387C123.144 39.5825 123.335 39.687 123.485 39.8392C123.635 39.9913 123.736 40.1843 123.776 40.3939C123.817 40.6035 123.794 40.8203 123.712 41.0172C123.629 41.214 123.491 41.3822 123.313 41.5004C123.135 41.6186 122.927 41.6817 122.713 41.6817C122.569 41.6818 122.427 41.6532 122.294 41.5976C122.162 41.5421 122.042 41.4607 121.941 41.3582C121.84 41.2557 121.761 41.1342 121.707 41.0007C121.654 40.8673 121.628 40.7245 121.63 40.5808Z" fill="#E5DEFD"/>
<path d="M125.031 40.5807C125.035 40.367 125.101 40.159 125.223 39.9831C125.344 39.8072 125.515 39.6711 125.714 39.5922C125.913 39.5132 126.13 39.4948 126.34 39.5394C126.549 39.5839 126.74 39.6893 126.889 39.8424C127.039 39.9954 127.139 40.1892 127.179 40.3994C127.218 40.6096 127.194 40.8267 127.11 41.0234C127.026 41.2201 126.886 41.3875 126.707 41.5047C126.529 41.6219 126.319 41.6834 126.105 41.6817C125.962 41.6817 125.82 41.6531 125.688 41.5975C125.556 41.5418 125.436 41.4603 125.336 41.3577C125.236 41.2551 125.157 41.1335 125.105 41C125.053 40.8666 125.028 40.724 125.031 40.5807Z" fill="#E5DEFD"/>
<path d="M128.432 40.5807C128.436 40.367 128.503 40.159 128.624 39.9831C128.746 39.8072 128.917 39.6711 129.115 39.5922C129.314 39.5132 129.532 39.4948 129.741 39.5394C129.95 39.5839 130.141 39.6893 130.291 39.8424C130.44 39.9954 130.541 40.1892 130.58 40.3994C130.619 40.6096 130.596 40.8267 130.512 41.0234C130.428 41.2201 130.288 41.3875 130.109 41.5047C129.93 41.6219 129.72 41.6834 129.507 41.6817C129.363 41.6817 129.221 41.6531 129.089 41.5975C128.957 41.5418 128.838 41.4603 128.737 41.3577C128.637 41.2551 128.559 41.1335 128.506 41C128.454 40.8666 128.429 40.724 128.432 40.5807Z" fill="#E5DEFD"/>
<path d="M254.828 42.9449H246.029V38.8633H254.828V42.9449ZM246.495 42.4884H254.372V39.3198H246.495V42.4884Z" fill="#E5DEFD"/>
<path d="M252.429 39.5586H246.763V42.2439H252.429V39.5586Z" fill="#E5DEFD"/>
<path d="M255.607 39.8086H254.828V41.9837H255.607V39.8086Z" fill="#E5DEFD"/>
<path d="M128.961 337.955H127.717V343.639H125.407V340.739H121.308V343.639H118.998V337.955H117.763L123.357 332.164L128.961 337.955Z" fill="#EBEBEB"/>
<path d="M253.503 332.164H240.005V334.088H253.503V332.164Z" fill="#EBEBEB"/>
<path d="M253.503 336.938H240.005V338.862H253.503V336.938Z" fill="#EBEBEB"/>
<path d="M253.503 341.703H240.005V343.628H253.503V341.703Z" fill="#EBEBEB"/>
<path d="M189.469 337.134L185.629 341.234L181.789 337.134L182.469 336.508L185.629 339.873L188.788 336.508L189.469 337.134Z" fill="#EBEBEB"/>
<path d="M185.629 345.465C184.249 345.465 182.901 345.056 181.755 344.29C180.608 343.524 179.714 342.435 179.187 341.161C178.659 339.887 178.521 338.485 178.79 337.132C179.059 335.779 179.723 334.537 180.698 333.562C181.673 332.587 182.916 331.923 184.268 331.654C185.621 331.384 187.023 331.523 188.297 332.05C189.571 332.578 190.66 333.472 191.426 334.618C192.192 335.765 192.601 337.113 192.601 338.492C192.597 340.34 191.86 342.111 190.554 343.418C189.247 344.724 187.476 345.46 185.629 345.465ZM185.629 332.441C184.432 332.441 183.262 332.796 182.267 333.461C181.272 334.126 180.496 335.071 180.038 336.177C179.58 337.282 179.46 338.499 179.694 339.673C179.927 340.846 180.504 341.925 181.35 342.771C182.196 343.617 183.274 344.193 184.448 344.427C185.622 344.66 186.838 344.54 187.944 344.082C189.05 343.625 189.995 342.849 190.66 341.854C191.324 340.859 191.679 339.689 191.679 338.492C191.679 336.888 191.042 335.348 189.907 334.214C188.772 333.079 187.233 332.441 185.629 332.441Z" fill="#EBEBEB"/>
<path d="M175.219 313.441C175.219 313.901 175.082 314.351 174.826 314.733C174.571 315.116 174.207 315.414 173.782 315.591C173.357 315.767 172.889 315.813 172.437 315.723C171.986 315.633 171.571 315.412 171.246 315.086C170.92 314.761 170.699 314.346 170.609 313.895C170.519 313.443 170.565 312.975 170.741 312.55C170.918 312.125 171.216 311.761 171.598 311.506C171.981 311.25 172.431 311.113 172.891 311.113C173.197 311.112 173.501 311.172 173.783 311.288C174.066 311.405 174.323 311.576 174.54 311.792C174.756 312.009 174.927 312.266 175.044 312.549C175.16 312.831 175.22 313.135 175.219 313.441Z" fill="#DBDBDB"/>
<path d="M189.406 313.437C189.406 314.134 189.199 314.816 188.812 315.396C188.424 315.976 187.873 316.428 187.229 316.695C186.585 316.962 185.876 317.032 185.191 316.896C184.507 316.76 183.879 316.424 183.386 315.931C182.893 315.437 182.557 314.809 182.421 314.125C182.284 313.441 182.354 312.732 182.621 312.087C182.888 311.443 183.34 310.892 183.92 310.504C184.5 310.117 185.182 309.91 185.879 309.91C186.815 309.91 187.712 310.282 188.373 310.943C189.035 311.604 189.406 312.501 189.406 313.437Z" fill="#7B58F4"/>
<path d="M201.195 313.441C201.195 313.901 201.058 314.351 200.802 314.733C200.547 315.116 200.183 315.414 199.758 315.591C199.333 315.767 198.865 315.813 198.413 315.723C197.962 315.633 197.547 315.412 197.222 315.086C196.896 314.761 196.675 314.346 196.585 313.895C196.495 313.443 196.541 312.975 196.717 312.55C196.893 312.125 197.192 311.761 197.574 311.506C197.957 311.25 198.407 311.113 198.867 311.113C199.173 311.112 199.476 311.172 199.759 311.288C200.042 311.405 200.299 311.576 200.516 311.792C200.732 312.009 200.903 312.266 201.02 312.549C201.136 312.831 201.196 313.135 201.195 313.441Z" fill="#DBDBDB"/>
<path d="M216.536 248.602H153.719V268.58H216.536V248.602Z" fill="#7B58F4"/>
<path d="M171.307 261.387V256.017C171.306 255.951 171.318 255.885 171.343 255.824C171.368 255.762 171.404 255.707 171.451 255.66C171.498 255.613 171.554 255.576 171.615 255.551C171.677 255.527 171.742 255.514 171.808 255.516C171.875 255.515 171.941 255.527 172.003 255.551C172.065 255.576 172.121 255.613 172.169 255.659C172.216 255.706 172.254 255.762 172.28 255.823C172.305 255.884 172.319 255.95 172.319 256.017V260.913H174.807C174.942 260.913 175.072 260.967 175.168 261.063C175.263 261.158 175.317 261.288 175.317 261.423C175.317 261.559 175.263 261.688 175.168 261.784C175.072 261.88 174.942 261.934 174.807 261.934H171.808C171.739 261.934 171.67 261.919 171.606 261.892C171.542 261.864 171.484 261.823 171.437 261.771C171.39 261.72 171.354 261.659 171.332 261.593C171.309 261.527 171.301 261.457 171.307 261.387Z" fill="white"/>
<path d="M181.153 256.27C181.75 256.894 182.082 257.725 182.082 258.588C182.082 259.452 181.75 260.282 181.153 260.906C180.877 261.213 180.541 261.459 180.165 261.628C179.789 261.798 179.382 261.887 178.969 261.891C178.547 261.89 178.13 261.802 177.743 261.633C177.357 261.463 177.009 261.216 176.722 260.906C176.136 260.277 175.81 259.448 175.81 258.588C175.81 257.728 176.136 256.899 176.722 256.27C177.008 255.958 177.355 255.71 177.742 255.54C178.129 255.371 178.547 255.284 178.969 255.285C179.382 255.287 179.79 255.376 180.166 255.545C180.542 255.715 180.878 255.962 181.153 256.27ZM181.037 258.588C181.037 257.994 180.813 257.422 180.41 256.986C180.228 256.783 180.006 256.62 179.758 256.508C179.51 256.396 179.241 256.336 178.969 256.332C178.69 256.331 178.413 256.389 178.157 256.501C177.901 256.614 177.671 256.779 177.483 256.986C177.077 257.42 176.853 257.994 176.857 258.588C176.851 259.18 177.076 259.752 177.483 260.181C177.671 260.389 177.9 260.556 178.156 260.67C178.412 260.784 178.689 260.843 178.969 260.844C179.242 260.839 179.511 260.777 179.759 260.663C180.007 260.549 180.229 260.385 180.41 260.181C180.801 259.744 181.012 259.175 181.001 258.588H181.037Z" fill="white"/>
<path d="M183.57 258.598C183.585 257.97 183.774 257.358 184.116 256.83C184.459 256.303 184.941 255.881 185.509 255.612C186.077 255.343 186.709 255.237 187.334 255.306C187.959 255.375 188.553 255.616 189.048 256.003C189.157 256.088 189.228 256.213 189.245 256.351C189.262 256.489 189.223 256.627 189.138 256.737C189.052 256.846 188.927 256.917 188.789 256.933C188.652 256.95 188.513 256.912 188.404 256.826C187.991 256.507 187.484 256.334 186.963 256.334C186.656 256.329 186.351 256.386 186.067 256.501C185.782 256.617 185.524 256.788 185.307 257.005C185.089 257.208 184.916 257.453 184.798 257.726C184.679 257.998 184.618 258.292 184.618 258.589C184.618 258.887 184.679 259.181 184.798 259.453C184.916 259.726 185.089 259.971 185.307 260.174C185.524 260.391 185.782 260.562 186.067 260.678C186.351 260.793 186.656 260.85 186.963 260.845C187.404 260.842 187.836 260.721 188.216 260.496V259.243H186.9C186.762 259.238 186.632 259.181 186.535 259.083C186.438 258.984 186.383 258.853 186.381 258.715C186.383 258.579 186.439 258.449 186.536 258.353C186.633 258.258 186.764 258.205 186.9 258.205H188.69C188.759 258.202 188.828 258.214 188.892 258.238C188.957 258.262 189.016 258.3 189.066 258.347C189.116 258.395 189.156 258.452 189.184 258.515C189.211 258.578 189.226 258.646 189.227 258.715V260.747C189.232 260.797 189.232 260.848 189.227 260.899C189.195 260.992 189.132 261.071 189.048 261.123C188.555 261.509 187.963 261.751 187.34 261.821C186.717 261.892 186.086 261.787 185.519 261.52C184.952 261.252 184.47 260.833 184.127 260.307C183.785 259.782 183.595 259.172 183.579 258.545L183.57 258.598Z" fill="white"/>
<path d="M191.393 255.974C191.392 255.908 191.404 255.842 191.429 255.781C191.454 255.719 191.49 255.664 191.537 255.617C191.584 255.57 191.64 255.533 191.701 255.508C191.762 255.484 191.828 255.472 191.894 255.473C191.961 255.472 192.028 255.484 192.09 255.508C192.153 255.533 192.21 255.569 192.258 255.616C192.306 255.662 192.345 255.718 192.371 255.779C192.398 255.841 192.412 255.907 192.414 255.974V261.345C192.409 261.479 192.352 261.607 192.255 261.7C192.158 261.794 192.029 261.846 191.894 261.846C191.828 261.847 191.762 261.835 191.701 261.81C191.64 261.785 191.584 261.748 191.537 261.702C191.49 261.655 191.454 261.599 191.429 261.538C191.404 261.476 191.392 261.411 191.393 261.345V255.974Z" fill="white"/>
<path d="M195.135 261.392C195.135 261.525 195.082 261.653 194.988 261.747C194.894 261.841 194.766 261.894 194.633 261.894C194.501 261.894 194.373 261.841 194.279 261.747C194.185 261.653 194.132 261.525 194.132 261.392V256.022C194.13 255.94 194.148 255.86 194.184 255.786C194.22 255.713 194.273 255.65 194.338 255.601C194.447 255.528 194.579 255.498 194.708 255.518C194.838 255.538 194.955 255.606 195.036 255.709L197.999 259.808V256.058C197.999 255.993 198.012 255.929 198.036 255.869C198.061 255.809 198.097 255.755 198.143 255.709C198.189 255.664 198.243 255.628 198.303 255.603C198.363 255.578 198.427 255.565 198.491 255.565C198.623 255.565 198.749 255.617 198.843 255.709C198.936 255.801 198.99 255.926 198.993 256.058V261.428C198.99 261.56 198.937 261.687 198.843 261.78C198.75 261.874 198.624 261.927 198.491 261.929C198.419 261.928 198.347 261.911 198.282 261.878C198.217 261.846 198.16 261.799 198.115 261.741L198.071 261.688L195.135 257.615V261.392Z" fill="white"/>
<path d="M200.845 93.9438V100.487H196.218V93.9438C196.218 87.6782 191.482 82.6567 185.664 82.6567C179.846 82.6567 175.111 87.714 175.111 93.9438V110.324H170.412V93.9438C170.412 84.9929 177.224 77.7695 185.629 77.7695C194.034 77.7695 200.845 85.0287 200.845 93.9438Z" fill="#E5DEFD"/>
<path d="M170.448 100.504L175.076 100.692V110.323H170.448V100.504Z" fill="#E5DEFD"/>
<path d="M206.744 104.84H164.514V143.15H206.744V104.84Z" fill="#7B58F4"/>
<path opacity="0.1" d="M206.744 104.84H185.629V143.15H206.744V104.84Z" fill="#E5DEFD"/>
<path d="M187.419 125.395L189.209 133.773H181.708L183.499 125.395C182.804 124.964 182.269 124.318 181.975 123.556C181.68 122.794 181.642 121.956 181.866 121.17C182.09 120.384 182.564 119.692 183.217 119.2C183.869 118.708 184.664 118.441 185.481 118.441C186.299 118.441 187.094 118.708 187.746 119.2C188.398 119.692 188.872 120.384 189.097 121.17C189.321 121.956 189.283 122.794 188.988 123.556C188.693 124.318 188.158 124.964 187.464 125.395H187.419Z" fill="#263238"/>
<path d="M240.014 185.422H131.252V204.04H240.014V185.422Z" fill="white"/>
<path d="M240.453 204.486H130.804V184.973H240.453V204.486ZM131.7 203.591H239.558V185.868H131.7V203.591Z" fill="#EBEBEB"/>
<path d="M142.539 190.562H141.644V198.52H142.539V190.562Z" fill="#37474F"/>
<path d="M146.075 194.086H138.117V194.981H146.075V194.086Z" fill="#37474F"/>
<path d="M144.594 191.399L138.966 197.023L139.598 197.657L145.227 192.032L144.594 191.399Z" fill="#37474F"/>
<path d="M139.591 191.402L138.958 192.035L144.585 197.662L145.218 197.029L139.591 191.402Z" fill="#37474F"/>
<path d="M156.037 190.562H155.142V198.52H156.037V190.562Z" fill="#37474F"/>
<path d="M159.573 194.086H151.615V194.981H159.573V194.086Z" fill="#37474F"/>
<path d="M158.089 191.407L152.461 197.031L153.093 197.664L158.722 192.04L158.089 191.407Z" fill="#37474F"/>
<path d="M153.092 191.402L152.459 192.035L158.086 197.662L158.719 197.029L153.092 191.402Z" fill="#37474F"/>
<path d="M169.535 190.562H168.64V198.52H169.535V190.562Z" fill="#37474F"/>
<path d="M173.071 194.086H165.113V194.981H173.071V194.086Z" fill="#37474F"/>
<path d="M171.584 191.407L165.956 197.031L166.588 197.664L172.217 192.04L171.584 191.407Z" fill="#37474F"/>
<path d="M166.593 191.402L165.96 192.035L171.587 197.662L172.22 197.029L166.593 191.402Z" fill="#37474F"/>
<path d="M183.042 190.562H182.147V198.52H183.042V190.562Z" fill="#37474F"/>
<path d="M186.568 194.086H178.611V194.981H186.568V194.086Z" fill="#37474F"/>
<path d="M185.089 191.41L179.46 197.035L180.093 197.668L185.721 192.044L185.089 191.41Z" fill="#37474F"/>
<path d="M180.1 191.406L179.467 192.039L185.094 197.666L185.727 197.033L180.1 191.406Z" fill="#37474F"/>
<path d="M196.54 190.562H195.645V198.52H196.54V190.562Z" fill="#37474F"/>
<path d="M200.066 194.086H192.109V194.981H200.066V194.086Z" fill="#37474F"/>
<path d="M198.584 191.41L192.955 197.035L193.588 197.668L199.216 192.044L198.584 191.41Z" fill="#37474F"/>
<path d="M193.592 191.398L192.959 192.031L198.586 197.658L199.219 197.025L193.592 191.398Z" fill="#37474F"/>
<path d="M210.038 190.562H209.143V198.52H210.038V190.562Z" fill="#37474F"/>
<path d="M213.573 194.086H205.616V194.981H213.573V194.086Z" fill="#37474F"/>
<path d="M212.085 191.407L206.456 197.031L207.089 197.664L212.718 192.04L212.085 191.407Z" fill="#37474F"/>
<path d="M207.093 191.394L206.46 192.027L212.086 197.654L212.719 197.021L207.093 191.394Z" fill="#37474F"/>
<path d="M230.724 197.603C229.752 197.545 228.806 197.274 227.95 196.81C227.095 196.346 226.352 195.7 225.774 194.917L225.577 194.649L225.774 194.389C226.315 193.581 227.048 192.918 227.907 192.46C228.765 192.001 229.724 191.762 230.697 191.762C231.67 191.762 232.628 192.001 233.487 192.46C234.346 192.918 235.078 193.581 235.62 194.389L235.808 194.649L235.62 194.917C235.048 195.694 234.313 196.336 233.468 196.8C232.622 197.263 231.686 197.537 230.724 197.603ZM226.714 194.685C227.175 195.321 227.781 195.838 228.481 196.195C229.181 196.552 229.956 196.739 230.742 196.739C231.527 196.739 232.302 196.552 233.002 196.195C233.702 195.838 234.308 195.321 234.769 194.685C234.308 194.049 233.702 193.531 233.002 193.174C232.302 192.817 231.527 192.631 230.742 192.631C229.956 192.631 229.181 192.817 228.481 193.174C227.781 193.531 227.175 194.049 226.714 194.685Z" fill="#EBEBEB"/>
<path d="M230.715 196.7C231.827 196.7 232.729 195.798 232.729 194.686C232.729 193.574 231.827 192.672 230.715 192.672C229.602 192.672 228.701 193.574 228.701 194.686C228.701 195.798 229.602 196.7 230.715 196.7Z" fill="#EBEBEB"/>
<path d="M234.03 190.653L226.878 197.805L227.511 198.438L234.663 191.286L234.03 190.653Z" fill="#EBEBEB"/>
<path d="M156.386 166.039H154.954V168.554C154.954 168.725 154.886 168.889 154.765 169.01C154.644 169.13 154.48 169.198 154.31 169.198C154.139 169.198 153.975 169.13 153.854 169.01C153.733 168.889 153.665 168.725 153.665 168.554V161.706C153.665 161.622 153.682 161.539 153.714 161.461C153.747 161.383 153.794 161.313 153.854 161.254C153.914 161.195 153.985 161.148 154.064 161.117C154.142 161.085 154.225 161.07 154.31 161.071H156.386C156.725 161.051 157.064 161.1 157.383 161.215C157.702 161.331 157.994 161.511 158.241 161.743C158.488 161.976 158.685 162.257 158.82 162.568C158.954 162.88 159.024 163.215 159.024 163.555C159.024 163.894 158.954 164.23 158.82 164.541C158.685 164.853 158.488 165.134 158.241 165.366C157.994 165.599 157.702 165.779 157.383 165.894C157.064 166.01 156.725 166.059 156.386 166.039ZM154.954 164.75H156.386C156.552 164.764 156.719 164.744 156.876 164.69C157.033 164.637 157.178 164.551 157.3 164.439C157.423 164.326 157.521 164.19 157.588 164.038C157.655 163.885 157.689 163.721 157.689 163.555C157.689 163.389 157.655 163.224 157.588 163.072C157.521 162.92 157.423 162.783 157.3 162.671C157.178 162.558 157.033 162.473 156.876 162.419C156.719 162.366 156.552 162.345 156.386 162.36H154.954V164.75Z" fill="#7B58F4"/>
<path d="M163.771 167.272H160.951L160.378 168.784C160.328 168.902 160.245 169.003 160.138 169.075C160.032 169.146 159.907 169.185 159.778 169.187C159.704 169.201 159.629 169.201 159.555 169.187C159.394 169.127 159.264 169.006 159.192 168.85C159.12 168.694 159.112 168.516 159.17 168.355L161.739 161.516C161.79 161.396 161.876 161.293 161.986 161.221C162.096 161.149 162.225 161.112 162.356 161.114C162.487 161.11 162.615 161.147 162.724 161.219C162.833 161.291 162.917 161.395 162.965 161.516L165.534 168.355C165.592 168.516 165.584 168.694 165.512 168.85C165.44 169.006 165.31 169.127 165.149 169.187C165.075 169.203 164.999 169.203 164.925 169.187C164.798 169.187 164.673 169.149 164.568 169.077C164.462 169.005 164.381 168.903 164.334 168.784L163.771 167.272ZM163.296 166.001L162.356 163.503L161.461 166.001H163.296Z" fill="#7B58F4"/>
<path d="M166.671 167.171C166.721 167.103 166.785 167.046 166.859 167.004C166.933 166.962 167.016 166.937 167.1 166.929C167.185 166.922 167.27 166.932 167.35 166.96C167.431 166.988 167.504 167.032 167.566 167.091C168.19 167.621 168.968 167.935 169.786 167.986C170.302 167.997 170.809 167.846 171.236 167.556C171.381 167.469 171.502 167.347 171.59 167.202C171.677 167.057 171.728 166.893 171.737 166.724C171.74 166.593 171.702 166.465 171.63 166.357C171.54 166.217 171.42 166.098 171.28 166.008C170.788 165.728 170.248 165.543 169.687 165.462C169.169 165.373 168.664 165.22 168.183 165.005C167.747 164.816 167.374 164.506 167.109 164.11C166.93 163.827 166.836 163.497 166.841 163.161C166.848 162.828 166.933 162.501 167.089 162.206C167.244 161.911 167.465 161.656 167.736 161.461C168.324 161.053 169.025 160.841 169.741 160.852C170.656 160.891 171.538 161.203 172.274 161.747C172.339 161.79 172.395 161.846 172.438 161.911C172.481 161.976 172.511 162.049 172.526 162.125C172.541 162.202 172.541 162.281 172.525 162.357C172.51 162.433 172.479 162.506 172.435 162.571C172.394 162.638 172.34 162.696 172.276 162.742C172.212 162.788 172.139 162.82 172.062 162.837C171.985 162.853 171.905 162.854 171.828 162.839C171.75 162.824 171.677 162.794 171.612 162.75C171.078 162.317 170.426 162.058 169.741 162.007C169.278 161.999 168.824 162.136 168.443 162.4C168.315 162.477 168.207 162.584 168.13 162.712C168.054 162.84 168.011 162.985 168.004 163.134C167.996 163.248 168.024 163.361 168.085 163.457C168.169 163.578 168.275 163.681 168.398 163.761C168.844 164.023 169.337 164.196 169.848 164.271C170.399 164.369 170.937 164.531 171.451 164.755C171.921 164.962 172.324 165.297 172.614 165.721C172.794 166.018 172.89 166.359 172.892 166.706C172.879 167.062 172.781 167.411 172.607 167.722C172.432 168.033 172.186 168.299 171.889 168.496C171.265 168.94 170.515 169.172 169.75 169.158C168.658 169.109 167.613 168.7 166.778 167.995C166.659 167.897 166.582 167.757 166.562 167.604C166.542 167.451 166.581 167.297 166.671 167.171Z" fill="#7B58F4"/>
<path d="M174.306 167.171C174.355 167.11 174.416 167.059 174.485 167.022C174.555 166.984 174.631 166.961 174.709 166.954C174.788 166.946 174.867 166.955 174.942 166.978C175.017 167.002 175.087 167.04 175.147 167.091C175.771 167.621 176.549 167.935 177.367 167.986C177.883 167.998 178.39 167.847 178.817 167.556C178.962 167.469 179.083 167.347 179.171 167.202C179.258 167.057 179.309 166.893 179.318 166.724C179.321 166.593 179.283 166.465 179.211 166.357C179.123 166.215 179.003 166.095 178.862 166.008C178.373 165.728 177.835 165.542 177.277 165.462C176.761 165.374 176.259 165.221 175.782 165.005C175.344 164.815 174.969 164.504 174.699 164.11C174.523 163.825 174.43 163.496 174.431 163.161C174.438 162.828 174.523 162.501 174.679 162.206C174.834 161.911 175.055 161.656 175.326 161.461C175.914 161.053 176.615 160.841 177.331 160.852C178.246 160.891 179.128 161.203 179.864 161.747C179.929 161.79 179.985 161.846 180.028 161.911C180.071 161.976 180.101 162.049 180.116 162.125C180.131 162.202 180.131 162.281 180.115 162.357C180.1 162.433 180.069 162.506 180.025 162.571C179.984 162.638 179.93 162.696 179.866 162.742C179.802 162.788 179.729 162.82 179.652 162.837C179.575 162.853 179.495 162.854 179.418 162.839C179.34 162.824 179.267 162.794 179.202 162.75C178.668 162.317 178.016 162.058 177.331 162.007C176.868 161.999 176.414 162.136 176.033 162.4C175.905 162.477 175.797 162.584 175.72 162.712C175.644 162.84 175.601 162.985 175.594 163.134C175.586 163.248 175.614 163.361 175.675 163.457C175.759 163.578 175.865 163.681 175.988 163.761C176.435 164.021 176.927 164.195 177.438 164.271C177.989 164.369 178.527 164.531 179.041 164.755C179.51 164.96 179.91 165.296 180.195 165.721C180.381 166.016 180.478 166.358 180.473 166.706C180.461 167.062 180.365 167.41 180.193 167.721C180.02 168.033 179.775 168.298 179.479 168.496C178.853 168.942 178.1 169.174 177.331 169.158C176.239 169.109 175.195 168.7 174.359 167.995C174.25 167.888 174.185 167.745 174.175 167.593C174.165 167.441 174.211 167.291 174.306 167.171Z" fill="#7B58F4"/>
<path d="M192.718 162.023L189.871 168.781C189.859 168.821 189.838 168.858 189.809 168.889C189.809 168.889 189.809 168.933 189.755 168.96L189.674 169.014C189.674 169.014 189.621 169.076 189.567 169.085H189.468H189.191H189.11C189.07 169.075 189.035 169.049 189.012 169.014L188.931 168.96C188.931 168.96 188.931 168.915 188.887 168.889C188.882 168.853 188.882 168.817 188.887 168.781L187.365 165.201L185.843 168.781C185.843 168.781 185.843 168.862 185.799 168.889L185.727 168.96C185.7 168.973 185.675 168.991 185.655 169.014L185.566 169.085C185.536 169.079 185.506 169.079 185.476 169.085H185.19H185.1C185.06 169.07 185.023 169.046 184.993 169.014C184.993 169.014 184.948 169.014 184.912 168.96L184.859 168.889C184.859 168.889 184.859 168.817 184.796 168.781L181.941 162.014C181.889 161.861 181.898 161.695 181.965 161.548C182.031 161.401 182.152 161.285 182.301 161.224C182.45 161.162 182.617 161.16 182.768 161.217C182.919 161.274 183.042 161.386 183.113 161.531L185.387 166.901L186.891 163.321C186.94 163.203 187.024 163.103 187.131 163.033C187.237 162.963 187.363 162.926 187.49 162.927C187.619 162.929 187.744 162.967 187.852 163.036C187.959 163.106 188.045 163.205 188.099 163.321L189.594 166.901L191.858 161.531C191.925 161.375 192.051 161.251 192.209 161.188C192.367 161.124 192.543 161.125 192.7 161.191C192.802 161.304 192.861 161.451 192.864 161.604C192.867 161.757 192.815 161.905 192.718 162.023Z" fill="#7B58F4"/>
<path d="M200.845 162.075C201.599 162.869 202.019 163.921 202.019 165.015C202.019 166.11 201.599 167.162 200.845 167.956C200.493 168.341 200.064 168.65 199.587 168.862C199.109 169.075 198.593 169.187 198.071 169.191C197.537 169.188 197.01 169.077 196.521 168.865C196.032 168.653 195.591 168.343 195.224 167.956C194.488 167.153 194.08 166.104 194.08 165.015C194.08 163.927 194.488 162.877 195.224 162.075C195.589 161.686 196.03 161.376 196.52 161.163C197.009 160.951 197.537 160.841 198.071 160.84C198.594 160.842 199.11 160.953 199.588 161.166C200.066 161.378 200.494 161.688 200.845 162.075ZM200.693 165.011C200.693 164.262 200.412 163.54 199.906 162.988C199.675 162.73 199.392 162.523 199.076 162.381C198.76 162.239 198.417 162.165 198.071 162.165C197.717 162.162 197.367 162.234 197.043 162.376C196.719 162.518 196.429 162.726 196.191 162.988C195.681 163.538 195.4 164.261 195.403 165.011C195.396 165.761 195.678 166.486 196.191 167.034C196.429 167.295 196.72 167.504 197.043 167.648C197.367 167.791 197.717 167.866 198.071 167.866C198.417 167.862 198.759 167.785 199.075 167.642C199.391 167.499 199.674 167.292 199.906 167.034C200.402 166.478 200.67 165.756 200.657 165.011H200.693Z" fill="#7B58F4"/>
<path d="M209.644 168.228C209.672 168.307 209.684 168.391 209.678 168.475C209.673 168.559 209.651 168.641 209.613 168.716C209.576 168.791 209.524 168.858 209.46 168.913C209.396 168.967 209.321 169.008 209.241 169.033C209.155 169.047 209.068 169.047 208.982 169.033C208.823 169.037 208.668 168.993 208.534 168.908C208.376 168.808 208.247 168.67 208.158 168.505C207.974 168.064 207.891 167.587 207.917 167.109C207.915 166.932 207.866 166.759 207.773 166.608C207.687 166.469 207.567 166.355 207.424 166.277C207.226 166.149 207.009 166.055 206.78 165.999H205.41V168.514C205.409 168.599 205.391 168.682 205.358 168.76C205.324 168.838 205.276 168.908 205.215 168.967C205.155 169.026 205.083 169.073 205.004 169.104C204.926 169.135 204.842 169.151 204.757 169.15C204.588 169.15 204.427 169.083 204.308 168.964C204.188 168.844 204.121 168.683 204.121 168.514V161.667C204.12 161.583 204.136 161.5 204.167 161.422C204.199 161.345 204.246 161.274 204.305 161.215C204.364 161.156 204.435 161.109 204.512 161.077C204.59 161.046 204.673 161.03 204.757 161.031H206.834C207.345 161.029 207.845 161.186 208.265 161.479C208.684 161.772 209.002 162.188 209.176 162.67C209.35 163.151 209.37 163.675 209.234 164.168C209.098 164.662 208.813 165.101 208.418 165.426C208.572 165.549 208.708 165.694 208.821 165.856C209.073 166.225 209.207 166.662 209.206 167.109C209.189 167.34 209.204 167.572 209.25 167.798C209.347 167.83 209.435 167.886 209.504 167.961C209.573 168.036 209.621 168.128 209.644 168.228ZM208.006 163.555C208.007 163.398 207.977 163.241 207.917 163.095C207.857 162.949 207.769 162.816 207.657 162.705C207.546 162.593 207.413 162.505 207.267 162.445C207.121 162.385 206.965 162.355 206.807 162.356H205.383V164.746H206.807C207.123 164.746 207.427 164.621 207.652 164.398C207.876 164.175 208.004 163.872 208.006 163.555Z" fill="#7B58F4"/>
<path d="M211.533 168.549V161.702C211.532 161.618 211.547 161.535 211.579 161.457C211.61 161.38 211.657 161.309 211.716 161.25C211.775 161.191 211.846 161.144 211.924 161.112C212.001 161.081 212.084 161.065 212.168 161.066H213.538C214.581 161.115 215.566 161.565 216.287 162.32C217.008 163.076 217.411 164.081 217.411 165.126C217.411 166.17 217.008 167.175 216.287 167.931C215.566 168.687 214.581 169.136 213.538 169.185H212.168C212 169.185 211.838 169.118 211.719 168.999C211.6 168.88 211.533 168.718 211.533 168.549ZM212.822 167.896H213.538C214.245 167.856 214.911 167.546 215.397 167.031C215.884 166.516 216.155 165.834 216.155 165.126C216.155 164.417 215.884 163.735 215.397 163.22C214.911 162.705 214.245 162.396 213.538 162.355H212.822V167.896Z" fill="#7B58F4"/>
<path d="M350.378 62.524C350.378 62.524 343.549 117.178 332.324 129.477C318.898 144.228 309.052 142.071 303.682 149.679C298.239 142.062 288.465 144.228 275.039 129.468C263.814 117.169 257.003 62.5151 257.003 62.5151C286.541 48.1936 303.726 32.082 303.726 32.082C304.174 32.5922 321.27 48.3995 350.378 62.524Z" fill="#37474F"/>
<path d="M303.646 32.0999V149.679C298.204 142.062 288.429 144.228 275.003 129.468C263.779 117.169 256.967 62.5151 256.967 62.5151C286.505 48.1936 303.691 32.082 303.691 32.082L303.646 32.0999Z" fill="#455A64"/>
<path d="M343.164 66.9268C343.164 66.9268 337.4 113.096 327.948 123.488C316.553 135.965 308.256 134.13 303.7 140.557C299.108 134.13 290.846 135.965 279.452 123.488C269.982 113.096 264.235 66.9268 264.235 66.9268C289.208 54.7984 303.709 41.2109 303.709 41.2109C303.709 41.2109 318.147 54.7984 343.164 66.9268Z" fill="#455A64"/>
<path d="M264.172 66.9291C264.172 66.9291 269.937 113.089 279.389 123.49C290.765 135.958 299.018 134.141 303.619 140.55V41.1953C303.207 41.6876 288.76 54.9886 264.172 66.9291Z" fill="#37474F"/>
<path d="M316.594 103.83C323.742 96.6816 323.742 85.0918 316.594 77.9434C309.446 70.7951 297.856 70.7951 290.707 77.9434C283.559 85.0918 283.559 96.6816 290.707 103.83C297.856 110.978 309.446 110.978 316.594 103.83Z" fill="#7B58F4"/>
<path d="M301.56 102.775L293.406 94.2983L296.431 91.3892L300.925 96.0616L310.61 81.2031L314.127 83.4946L301.56 102.775Z" fill="white"/>
<path d="M33.7948 193.914H96.5942V180.908H33.7948V193.914Z" fill="#E5DEFD"/>
<path d="M79.7397 193.809L81.4941 210.43L103.209 366.033H109.412L92.28 210.43L90.8926 193.809H79.7397Z" fill="#E5DEFD"/>
<path d="M20.9595 366.033H27.1714L48.8863 210.43L50.6406 193.809H39.4878L38.1004 210.43L20.9595 366.033Z" fill="#E5DEFD"/>
<path d="M31.4407 315.207H100.712V311.304H31.4407V315.207Z" fill="#E5DEFD"/>
<path d="M92.28 209.849H81.4941L79.7397 193.809H90.8926L92.28 209.849Z" fill="#E5DEFD"/>
<path d="M38.1001 209.849H48.8859L50.6403 193.809H39.4875L38.1001 209.849Z" fill="#E5DEFD"/>
<path d="M42.1727 118.409C44.858 119.788 45.3234 124.541 53.6835 124.281C54.874 124.281 55.8496 123.771 56.9417 124.174C58.5439 124.756 59.8059 126.036 61.2291 126.966C62.3738 127.736 63.6771 128.238 65.0422 128.434C67.6614 128.744 70.3068 128.133 72.5252 126.707C73.8946 125.865 75.0404 124.702 76.3651 123.789C77.6898 122.876 85.683 120.942 87.0345 116.449C87.9296 113.594 87.7596 110.345 84.3493 106.173C83.5638 105.43 83.0289 104.46 82.8187 103.399C82.8209 102.469 83.032 101.551 83.4363 100.713C83.9053 99.7628 84.0769 98.6929 83.9286 97.6433C83.548 96.6396 82.9344 95.7408 82.1384 95.0207C80.8853 93.508 81.118 91.324 82.1384 88.6387C82.543 87.4992 82.6808 86.2821 82.5412 85.081C82.4015 83.88 81.9881 82.7269 81.3328 81.7107C80.5113 80.5465 79.5425 79.4935 78.4506 78.5779C76.92 77.1279 76.6605 75.7852 75.9712 73.7355C74.6734 69.7971 72.6415 68.0338 70.2516 66.8164C68.0945 65.7334 68.1661 66.1451 65.8567 66.4942C63.517 65.0664 60.7626 64.4733 58.0426 64.8114C55.5185 65.1337 53.4329 66.8254 51.5264 68.4455C49.8257 69.8955 48.2682 71.453 48.1787 73.8966C48.125 75.3019 48.4652 76.6982 48.4025 78.1035C48.313 79.8937 47.3194 81.0304 46.129 82.1583C44.3539 83.6679 43.1294 85.7234 42.6471 88.0032C42.3338 89.9097 44.2135 92.8725 42.0116 95.692C40.0782 98.1803 36.641 101.063 35.7459 104.177C33.0159 113.907 39.6396 117.085 42.1727 118.409Z" fill="#263238"/>
<path d="M74.548 123.651C78.388 123.069 84.2866 123.794 86.3274 119.516C87.135 118.857 87.7746 118.017 88.1932 117.063C88.6119 116.109 88.7976 115.069 88.7352 114.029C88.4716 111.808 87.4431 109.747 85.8261 108.202C84.8881 107.319 84.0696 106.317 83.3915 105.221C83.1749 104.368 83.0164 103.5 82.9171 102.625C83.0754 101.506 83.3762 100.411 83.8122 99.3672C82.9708 101.157 82.1921 103.091 82.9708 105.06C83.0852 105.341 83.2198 105.613 83.3736 105.874C83.6533 106.91 84.0372 107.915 84.5193 108.873C85.7814 111.379 86.9361 113.644 86.766 116.571C86.7363 117.549 86.5015 118.509 86.0768 119.39C84.4157 120.847 82.3408 121.749 80.1423 121.968C80.0886 121.968 80.0886 122.067 80.1423 122.058C82.1305 121.857 84.0375 121.165 85.6919 120.044C83.4631 123.239 78.2805 122.801 74.5301 123.544C74.4317 123.544 74.4675 123.66 74.548 123.651ZM86.6228 118.791V118.71C87.2874 116.338 87.1168 113.81 86.1394 111.549C85.5308 110.055 84.6178 108.712 84.0181 107.208C83.9196 106.949 83.8211 106.689 83.7316 106.42C84.6267 107.593 85.7545 108.569 86.5959 109.714C88.3861 112.203 88.9589 115.166 87.2493 117.86C87.0643 118.185 86.8548 118.497 86.6228 118.791Z" fill="#263238"/>
<path d="M77.9495 77.9991C79.3824 79.2442 80.7479 80.5648 82.0401 81.9554C82.9416 82.8681 83.4822 84.0764 83.5617 85.3568C83.5951 86.6468 83.1878 87.9097 82.407 88.9371C82.1206 89.3668 81.8252 89.8322 81.5657 90.2529C81.5044 91.0862 81.6361 91.9224 81.9505 92.6965C82.5771 94.1734 83.9645 95.0864 84.6358 96.5812C85.6741 98.9979 84.5194 100.985 83.499 103.142C84.242 101.352 85.2892 99.6245 84.6985 97.6195C84.233 95.9815 83.0336 95.0953 82.1296 93.7617C81.5793 92.9146 81.2699 91.9337 81.2345 90.9242C80.4289 92.5533 80.1514 94.2719 81.5746 95.9815C81.6373 96.062 81.5746 96.1694 81.4672 96.0978C79.677 94.3077 80.1425 92.061 81.2434 90.1366C81.3112 88.9998 81.5621 87.8815 81.9864 86.8247C81.9864 86.7173 82.1922 86.8247 82.1743 86.9053C82.0132 87.7467 81.7984 88.588 81.682 89.4205L81.87 89.143C83.3021 87.0933 83.866 84.6676 82.2191 82.5193C80.9838 80.8813 79.3011 79.5924 77.9226 78.0439C77.86 78.026 77.9137 77.9633 77.9495 77.9991Z" fill="#263238"/>
<path d="M88.7174 247.008C88.7174 247.008 72.6864 282.614 72.6685 282.641C69.5715 289.435 66.9668 295.441 65.9195 298.681C65.9126 298.699 65.9126 298.718 65.9195 298.735C65.5886 299.465 65.4323 300.262 65.463 301.062C65.463 301.062 65.463 301.107 65.463 301.116C66.8594 303.416 120.421 329.759 122.606 330.072C124.79 330.385 125.783 324.182 124.521 321.497C123.259 318.812 107.255 299.55 107.255 299.55L122.972 263.8L88.7174 247.008Z" fill="#EB9481"/>
<path d="M75.9625 275.297C75.9625 275.297 72.6865 282.583 72.6686 282.61C69.5716 289.403 66.9669 295.41 65.9196 298.65C65.9127 298.667 65.9127 298.686 65.9196 298.703C65.6735 299.458 65.5202 300.239 65.4631 301.031C65.4631 301.031 65.4631 301.075 65.4631 301.084C66.8595 303.385 120.422 329.727 122.606 330.041C124.79 330.354 125.783 324.151 124.521 321.466C123.259 318.78 107.255 299.518 107.255 299.518L110.701 292.142L75.9625 275.297Z" fill="#EBEBEB"/>
<path d="M122.588 330.003C120.404 329.716 66.8235 303.401 65.4182 301.1C64.8722 300.205 68.2467 292.203 72.5789 282.617L72.7132 282.312L107.478 298.907L107.174 299.489C107.174 299.489 123.187 318.743 124.458 321.428C125.729 324.113 124.763 330.298 122.588 330.003Z" fill="#263238"/>
<path d="M124.351 328.479C125.13 329.321 123.34 332.444 122.561 332.364C121.782 332.283 63.4853 303.327 62.5902 302.611C61.6951 301.895 63.8165 298.521 65.0606 298.905C66.3048 299.29 124.351 328.479 124.351 328.479Z" fill="#7B58F4"/>
<path d="M110.065 301.015C106.834 298.607 102.224 297.014 98.2591 298.213C98.1069 298.213 98.1785 298.482 98.3128 298.5C102.248 299.07 106.11 300.064 109.833 301.462C109.889 301.476 109.949 301.471 110.002 301.447C110.055 301.423 110.098 301.382 110.125 301.33C110.152 301.278 110.16 301.219 110.15 301.162C110.139 301.105 110.109 301.053 110.065 301.015Z" fill="white"/>
<path d="M111.874 303.829C108.642 301.412 104.033 299.827 100.067 301.027C99.9153 301.072 99.9869 301.286 100.121 301.313C104.056 301.881 107.918 302.871 111.641 304.267C111.698 304.288 111.76 304.287 111.817 304.266C111.873 304.244 111.92 304.203 111.948 304.149C111.977 304.096 111.985 304.034 111.971 303.975C111.957 303.916 111.923 303.864 111.874 303.829Z" fill="white"/>
<path d="M113.681 306.632C110.45 304.224 105.831 302.631 101.875 303.83C101.723 303.884 101.786 304.099 101.875 304.117C105.813 304.686 109.679 305.68 113.404 307.08C113.463 307.116 113.535 307.128 113.603 307.112C113.671 307.096 113.73 307.054 113.766 306.995C113.803 306.935 113.815 306.864 113.799 306.796C113.783 306.728 113.741 306.669 113.681 306.632Z" fill="white"/>
<path d="M78.6565 292.656C75.7206 288.807 69.7056 293.354 72.6683 297.212C75.6311 301.069 81.5924 296.513 78.6565 292.656Z" fill="white"/>
<path d="M98.1695 216.059C97.8114 226.415 77.8509 271.142 77.8509 271.142L112.858 287.254C112.858 287.254 141.116 237.514 138.493 214.6C136.255 195.158 87.3389 159.203 79.489 149.07C78.3253 147.566 78.7192 141.516 78.7192 141.516H46.9614V149.097C59.0899 174.84 95.3678 205.72 98.0531 214.788C98.159 215.202 98.1983 215.631 98.1695 216.059Z" fill="#37474F"/>
<path d="M112.661 279.779C106.896 277.013 108.588 277.72 102.815 275.026C99.9774 273.71 85.7455 267.042 82.8812 266.299C82.8658 266.292 82.8482 266.291 82.8322 266.297C82.8163 266.303 82.8033 266.315 82.7962 266.33C82.7891 266.346 82.7884 266.363 82.7942 266.379C82.8001 266.395 82.8121 266.408 82.8275 266.415C85.28 268.08 99.6641 274.408 102.519 275.67C108.364 278.248 106.717 277.461 112.589 279.949C112.688 280.003 112.768 279.824 112.661 279.779Z" fill="#263238"/>
<path d="M54.9457 154.508C64.5315 169.118 75.2488 182.954 86.9988 195.888C89.881 199.029 92.8437 202.082 95.8065 205.143C98.3127 207.73 100.873 210.603 101.49 214.282C102.188 218.381 100.595 222.463 99.3152 226.285C97.9099 230.492 96.4957 234.69 95.0009 238.87C93.3897 243.345 86.8019 259.627 85.7188 261.82C85.1728 262.912 94.437 239.443 95.9407 235.11C97.4445 230.778 98.9661 226.473 100.246 222.087C100.988 219.854 101.292 217.498 101.141 215.15C100.85 212.886 99.9467 210.744 98.5275 208.956C95.9497 205.519 92.6021 202.601 89.6751 199.468C83.6064 192.97 77.8212 186.221 72.3193 179.221C66.0581 171.315 60.2141 163.086 54.8114 154.57C54.8073 154.561 54.8049 154.552 54.8045 154.542C54.8041 154.532 54.8056 154.523 54.8089 154.514C54.8122 154.504 54.8173 154.496 54.8239 154.489C54.8305 154.482 54.8384 154.476 54.8472 154.472C54.856 154.468 54.8656 154.465 54.8753 154.465C54.885 154.464 54.8947 154.466 54.9038 154.469C54.913 154.473 54.9214 154.478 54.9286 154.484C54.9357 154.491 54.9415 154.499 54.9457 154.508Z" fill="#263238"/>
<path d="M36.1489 324.633C36.1489 324.633 34.5915 363.668 34.5825 363.695C34.7615 371.16 35.048 377.703 35.4776 381.068C35.4739 381.089 35.4739 381.11 35.4776 381.131C35.519 381.937 35.7489 382.721 36.1489 383.422V383.467C38.4045 384.917 98.107 385.257 100.193 384.568C102.278 383.879 100.479 377.873 98.1786 376.011C95.8782 374.149 73.0534 363.802 73.0534 363.802L74.2439 324.794L36.1489 324.633Z" fill="#EB9481"/>
<path d="M34.8689 355.977C34.8689 355.977 34.5646 363.674 34.5557 363.701C34.7347 371.166 35.0211 377.709 35.4508 381.075C35.4471 381.096 35.4471 381.117 35.4508 381.138C35.5938 381.926 35.8281 382.695 36.1489 383.429V383.474C38.4045 384.924 98.107 385.264 100.193 384.575C102.278 383.886 100.479 377.88 98.1786 376.018C95.8782 374.156 73.0534 363.809 73.0534 363.809L73.2951 355.914L34.8689 355.977Z" fill="#EBEBEB"/>
<path d="M100.148 384.498C98.0625 385.187 38.3869 384.91 36.0955 383.46C35.2004 382.923 34.7618 374.222 34.5022 363.687V363.356L72.991 363.105V363.759C72.991 363.759 95.7979 374.088 98.1251 375.95C100.452 377.812 102.243 383.818 100.148 384.498Z" fill="#263238"/>
<path d="M101.07 382.374C102.135 382.795 101.893 386.384 101.114 386.661C100.336 386.939 35.2538 386.357 34.1439 386.107C33.034 385.856 33.4636 381.882 34.7525 381.685C36.0415 381.488 101.07 382.374 101.07 382.374Z" fill="#7B58F4"/>
<path d="M76.231 363.914C72.2747 363.153 67.4233 363.744 64.3889 366.545C64.2726 366.653 64.3889 366.823 64.55 366.778C68.3335 365.578 72.2344 364.786 76.1862 364.415C76.2527 364.421 76.3188 364.4 76.37 364.357C76.4212 364.314 76.4533 364.253 76.4592 364.187C76.4651 364.12 76.4444 364.054 76.4016 364.003C76.3588 363.952 76.2974 363.92 76.231 363.914Z" fill="white"/>
<path d="M79.1131 365.64C75.1568 364.879 70.3144 365.47 67.2711 368.272C67.1547 368.379 67.2711 368.549 67.4411 368.504C71.2242 367.303 75.1252 366.511 79.0773 366.141C79.1438 366.146 79.2094 366.124 79.2597 366.081C79.3101 366.037 79.3411 365.975 79.3458 365.909C79.3506 365.842 79.3287 365.777 79.2851 365.726C79.2414 365.676 79.1796 365.645 79.1131 365.64Z" fill="white"/>
<path d="M81.9329 367.38C77.9766 366.619 73.1252 367.201 70.0908 370.011C69.9655 370.119 70.0908 370.289 70.252 370.244C74.035 369.043 77.9361 368.25 81.8881 367.881C81.9546 367.887 82.0207 367.866 82.0719 367.823C82.1231 367.781 82.1552 367.719 82.1611 367.653C82.167 367.586 82.1463 367.52 82.1035 367.469C82.0607 367.418 81.9993 367.386 81.9329 367.38Z" fill="white"/>
<path d="M44.3208 370.103C39.9976 367.919 36.5962 374.632 40.9195 376.816C45.2428 379 48.6799 372.296 44.3208 370.103Z" fill="white"/>
<path d="M74.1005 351.257L35.0746 351.579C35.0746 351.579 41.5729 192.191 37.2228 186.981C26.8756 174.602 28.5225 158.097 35.4953 141.52H71.0572C71.0572 141.52 69.3475 166.689 69.5176 167.423C80.4556 215.132 74.1005 351.257 74.1005 351.257Z" fill="#37474F"/>
<path d="M71.9524 343.263C63.4401 342.601 41.0181 343.326 38.1896 343.756C38.1765 343.762 38.1655 343.773 38.1578 343.785C38.1501 343.798 38.146 343.812 38.146 343.827C38.146 343.842 38.1501 343.857 38.1578 343.869C38.1655 343.882 38.1765 343.892 38.1896 343.899C40.9913 344.463 66.6982 343.657 71.9435 343.451C71.9638 343.446 71.982 343.434 71.9953 343.418C72.0086 343.402 72.0163 343.382 72.0173 343.361C72.0183 343.34 72.0125 343.319 72.0009 343.301C71.9892 343.284 71.9722 343.271 71.9524 343.263Z" fill="#263238"/>
<path d="M71.8986 151.304C71.5406 155.78 71.7196 163.495 69.1149 163.612C66.5102 163.728 66.9667 154.33 66.8951 152.163C66.8235 150.203 66.1522 150.472 66.0805 152.781C65.8836 159.047 66.0805 164.587 69.3745 164.328C72.6684 164.068 72.6774 154.356 72.5968 152.137C72.552 150.991 72.006 149.881 71.8986 151.304Z" fill="#263238"/>
<path d="M69.267 163.906C69.1049 165.488 69.138 167.084 69.3655 168.658C69.4103 168.784 69.9115 168.658 69.9652 168.578C70.2695 167.925 70.0279 164.845 70.1084 164.013C70.1227 163.901 70.092 163.789 70.0232 163.7C69.9891 163.656 69.9467 163.619 69.8983 163.591C69.85 163.563 69.7967 163.546 69.7414 163.539C69.6299 163.524 69.5172 163.555 69.4282 163.624C69.3393 163.693 69.2813 163.794 69.267 163.906Z" fill="#263238"/>
<path d="M70.386 169.456C71.496 173.394 72.6327 180.931 72.3642 182.882C72.3642 183.061 72.0778 183.124 72.042 182.936C71.6839 180.824 70.1086 170.664 69.9475 169.599C69.7863 168.534 70.0728 168.355 70.386 169.456Z" fill="#263238"/>
<path d="M63.5386 172.563C64.058 172.054 64.6145 171.584 65.2034 171.158C65.7852 170.701 66.3671 170.263 66.9936 169.824C68.2288 168.929 69.4999 168.159 70.7977 167.39C72.0956 166.62 73.3666 165.948 74.6914 165.277C76.0161 164.606 77.5378 164.051 78.9162 163.362C78.9968 163.317 79.0684 163.433 78.9878 163.478C77.681 164.203 76.4637 165.107 75.1926 165.904C73.9216 166.7 72.6506 167.524 71.3706 168.32C70.0906 169.117 68.8823 169.896 67.6291 170.666C66.9787 171.071 66.3163 171.465 65.642 171.847C65.0385 172.236 64.4107 172.586 63.7623 172.894C63.5475 172.975 63.4222 172.697 63.5386 172.563Z" fill="#263238"/>
<path d="M40.9555 268.329C41.5195 255.556 42.4145 241.288 42.6294 228.533C42.7308 222.142 42.7785 215.748 42.7726 209.352C42.7726 203.005 42.7726 194.529 42.4861 188.192C42.3161 184.969 36.6412 182.481 35.4865 173.1C34.6866 167.758 35.112 162.304 36.7307 157.15C37.1334 155.897 37.6086 154.669 38.1539 153.471C38.1539 153.391 38.3061 153.471 38.2703 153.543C35.9989 158.81 35.0553 164.555 35.5224 170.272C35.6874 173.154 36.291 175.994 37.3125 178.695C38.8342 182.481 42.5846 185.551 42.7815 187.565C43.0769 190.564 43.1217 193.159 43.1575 196.176C43.1933 199.192 43.2291 202.441 43.247 205.574C43.2828 211.971 43.2649 218.365 43.1933 224.756C43.0501 237.484 42.7159 250.206 42.1908 262.923C41.6537 275.642 38.3598 339.327 38.145 340.795C38.145 340.956 37.8585 340.921 37.8675 340.795C38.2613 334.378 40.3827 281.102 40.9555 268.329Z" fill="#263238"/>
<path d="M62.0347 112.145C70.5022 129.617 81.2522 148.539 91.313 151.529C100.89 154.348 119.455 130.834 125.326 124.676C127.421 122.438 110.405 109.639 107.765 111.581C102.788 115.242 93.8461 125.213 92.3424 124.864C90.8386 124.515 78.2805 112.575 66.9666 102.55C60.1102 96.4719 56.1718 100.034 62.0347 112.145Z" fill="#EB9481"/>
<path d="M140.051 113.586C142.378 112.61 160.297 112.038 160.297 108.153C160.297 104.268 137.482 105.36 137.482 105.36L140.051 113.586Z" fill="#EB9481"/>
<path d="M105.679 114.038C108.812 110.144 111.569 105.982 114.29 105.177C116.179 104.64 136.461 105.517 139.639 105.329C142.816 105.141 154.112 105.427 154.381 108.202C154.748 112.131 141.357 112.096 139.934 114.11C135.002 121.038 116.25 131.295 116.25 131.295L105.679 114.038Z" fill="#EB9481"/>
<path d="M154.677 108.268C154.481 107.531 154.018 106.893 153.379 106.477C151.992 105.511 150.166 105.421 148.536 105.296C146.066 105.065 143.581 105.044 141.107 105.233C141.095 105.233 141.084 105.238 141.076 105.246C141.067 105.255 141.062 105.266 141.062 105.278C141.062 105.29 141.067 105.301 141.076 105.31C141.084 105.318 141.095 105.323 141.107 105.323C142.96 105.323 144.813 105.368 146.666 105.52C148.363 105.591 150.047 105.849 151.687 106.289C152.429 106.487 153.099 106.89 153.621 107.453C153.805 107.65 153.938 107.89 154.005 108.151C154.072 108.412 154.072 108.686 154.005 108.948C153.459 110.658 150.085 111.168 148.528 111.517C146.496 111.973 144.383 112.412 142.334 112.788C142.244 112.788 142.334 112.949 142.378 112.931C144.5 112.51 146.746 112.34 148.877 111.955C150.604 111.642 152.457 111.293 153.853 110.165C154.154 109.957 154.39 109.669 154.536 109.334C154.681 108.999 154.73 108.629 154.677 108.268Z" fill="#263238"/>
<path d="M123.135 99.8047L123.725 96.7827L158.987 103.669C159.307 103.731 159.588 103.918 159.77 104.188C159.951 104.457 160.018 104.788 159.956 105.108L159.836 105.723C159.774 106.042 159.587 106.323 159.317 106.505C159.047 106.686 158.716 106.753 158.397 106.691L123.135 99.8047Z" fill="#7B58F4"/>
<path opacity="0.1" d="M123.721 96.7905L123.13 99.8125L127.382 100.643L127.972 97.6208L123.721 96.7905Z" fill="#E5DEFD"/>
<path d="M110.235 92.9443L109.197 98.3148C108.841 100.131 109.221 102.014 110.253 103.55C111.286 105.086 112.886 106.149 114.702 106.505C116.518 106.861 118.401 106.481 119.937 105.449C121.473 104.416 122.536 102.816 122.892 101L123.939 95.6295C124.116 94.7297 124.113 93.804 123.931 92.9052C123.75 92.0064 123.393 91.1522 122.882 90.3913C122.37 89.6303 121.714 88.9776 120.95 88.4704C120.186 87.9631 119.33 87.6113 118.43 87.435C117.53 87.2587 116.604 87.2613 115.706 87.4428C114.807 87.6242 113.953 87.9809 113.192 88.4925C111.655 89.5257 110.591 91.127 110.235 92.9443ZM121.746 94.2779C121.558 95.0727 121.129 95.7895 120.516 96.3298C119.904 96.87 119.139 97.2071 118.327 97.2944C119.043 97.6856 119.622 98.2862 119.986 99.0157C120.351 99.7452 120.484 100.569 120.368 101.376C119.947 103.506 117.602 104.849 115.123 104.366C112.643 103.882 110.969 101.752 111.381 99.6306C111.573 98.8364 112.005 98.1206 112.619 97.5808C113.232 97.0411 113.997 96.7035 114.809 96.6141C114.09 96.2268 113.508 95.6269 113.143 94.8963C112.778 94.1658 112.647 93.3402 112.768 92.5325C113.189 90.3933 115.534 89.0685 118.014 89.5519C120.493 90.0352 122.167 92.1476 121.746 94.2779Z" fill="#7B58F4"/>
<path d="M123.987 95.4268L122.863 101.181C122.804 101.487 123.003 101.783 123.309 101.842L123.59 101.897C123.896 101.957 124.192 101.758 124.251 101.452L125.375 95.6978C125.435 95.3922 125.235 95.096 124.93 95.0363L124.649 94.9814C124.343 94.9217 124.047 95.1211 123.987 95.4268Z" fill="#7B58F4"/>
<path d="M125.376 95.6924L124.252 101.447C124.193 101.752 124.392 102.048 124.698 102.108L124.979 102.163C125.285 102.223 125.581 102.023 125.64 101.718L126.764 95.9635C126.824 95.6578 126.624 95.3616 126.319 95.3019L126.038 95.247C125.732 95.1873 125.436 95.3867 125.376 95.6924Z" fill="#7B58F4"/>
<path d="M150.541 100.729L151.589 100.935L152.179 97.8823L153.083 98.0613L152.77 99.6546L153.817 99.8604L154.131 98.2672L154.918 98.4193L154.435 100.935L155.482 101.14L155.974 98.6252L157.102 98.849L156.449 102.206L157.496 102.411L158.15 99.0548L159.215 99.2607L158.382 103.548L149.002 101.722L149.834 97.4258L151.132 97.6854L150.541 100.729Z" fill="#7B58F4"/>
<path d="M30.3845 146.907L80.3484 147.73L76.4279 132.764C77.7314 130.886 78.608 128.745 78.9961 126.492C79.3842 124.24 79.2745 121.929 78.6746 119.723C77.4751 115.319 71.7913 108.722 68.3005 104.506C59.815 94.3023 52.4395 98.912 50.0854 101.535C41.1077 111.586 30.3845 146.907 30.3845 146.907Z" fill="#7B58F4"/>
<path d="M54.9903 107.354V104.508L56.8789 106.62L58.9197 105.985L57.9262 107.775L58.8839 108.777L57.398 108.93V110.863L55.769 109.502L54.4443 110.603L54.5964 108.974L52.663 108.079L54.9903 107.354ZM76.2755 139.336L74.7001 140.777L73.2501 140.007L73.7603 141.663L71.8806 142.639L73.6708 143.408L73.2322 144.841L74.539 144.339L75.8279 145.968L76.0249 143.838L78.7101 142.943L76.0965 141.806L76.2755 139.336ZM58.0067 128.711L59.5373 131.754L61.05 128.845L63.9322 129.347L62.4016 126.285L64.5409 124.245L61.5065 124.352L60.8978 121.38L59.3046 124.459L55.2588 124.146L57.6397 126.608L55.4378 128.299L58.0067 128.711ZM69.9203 111.123L70.6543 109.887L69.2759 110.013L68.8015 108.876L68.0586 110.111L66.8502 109.816L67.5752 110.872L66.6801 111.767L68.1391 111.633L68.9447 113.136L69.2759 111.74L70.3679 112.134L69.9203 111.123ZM46.4869 143.722L47.2209 142.495L45.8514 142.612L45.3681 141.475L44.6341 142.719L43.4257 142.415L44.1507 143.471L43.2556 144.366L44.7146 144.241L45.5202 145.745L45.8514 144.339L46.9524 144.742L46.4869 143.722ZM54.7038 121.532L55.4378 120.306L54.0594 120.422L53.585 119.286L52.851 120.53L51.6337 120.226L52.3587 121.282L51.4636 122.177L52.9226 122.052L53.7282 123.546L54.0594 122.15L55.1603 122.544L54.7038 121.532ZM45.8066 124.862L45.556 124.057L45.0727 124.71L44.3835 124.468L44.6341 125.283L44.0344 125.695L44.7773 125.793V126.545L45.2875 125.847L46.2631 126.088L45.7798 125.39L46.3885 125.059L45.8066 124.862ZM68.9984 144.062L68.7478 143.256L68.2555 143.91L67.5752 143.677L67.8258 144.482L67.2172 144.903L67.9691 144.993V145.745L68.4793 145.055L69.4549 145.288L68.9715 144.59L69.5802 144.268L68.9984 144.062ZM75.9353 120.664L76.5709 120.1L75.7742 119.93L75.7026 119.205L75.0671 119.769L74.4405 119.393L74.6643 120.109L73.993 120.449L74.8344 120.628L75.0224 121.622L75.4609 120.888L76.007 121.309L75.9353 120.664ZM63.4041 135.782L64.0307 135.218L63.234 135.048L63.1624 134.323L62.5359 134.887L61.9003 134.511L62.1241 135.227L61.4528 135.567L62.2942 135.746L62.4822 136.74L62.9208 136.006L63.4668 136.427L63.4041 135.782ZM37.6076 140.526L38.2342 139.962L37.4376 139.783L37.3749 139.058L36.7394 139.631L36.1486 139.246L36.3635 139.971L35.6921 140.302L36.5335 140.49L36.7304 141.475L37.1601 140.75L37.7061 141.171L37.6076 140.526Z" fill="white"/>
<path d="M63.0641 131.891C65.2006 131.695 67.3489 131.659 69.4908 131.784C70.556 131.856 71.6122 131.981 72.6684 132.133C73.1875 132.205 73.7156 132.258 74.2437 132.312C74.7967 132.379 75.3557 132.379 75.9086 132.312C75.9086 132.312 75.9713 132.375 75.9086 132.393C75.398 132.507 74.8809 132.591 74.3601 132.643C73.8504 132.675 73.3392 132.675 72.8295 132.643C71.7554 132.572 70.6723 132.455 69.5982 132.384C67.4232 132.223 65.2481 132.07 63.0641 132.07C63.0014 132.088 63.0014 131.9 63.0641 131.891Z" fill="#263238"/>
<path d="M58.2129 134.692C59.9111 134.197 61.6353 133.797 63.3776 133.493C64.2727 133.349 65.1678 133.251 66.0092 133.179L67.2712 133.09C67.7367 133.09 68.1663 133.09 68.6676 133.09C68.7213 133.09 68.7302 133.161 68.6676 133.17C68.229 133.215 67.7725 133.332 67.3608 133.394L66.0539 133.6L63.4403 134.012C61.6978 134.262 59.9554 134.543 58.2129 134.853C58.1413 134.853 58.1234 134.719 58.2129 134.692Z" fill="#263238"/>
<path d="M54.9458 100.974C55.1606 101.87 59.4212 107.643 63.4939 107.446C64.8186 107.374 64.7828 100.124 64.7828 100.124L64.8992 99.5871L66.5819 92.0773L57.7743 86.4382L56.5032 85.6953C56.5032 85.6953 56.181 87.7809 55.8051 90.3766C55.8051 90.5019 55.8051 90.6183 55.8051 90.7436C55.8051 90.8689 55.7513 91.03 55.7334 91.1733C55.6708 91.5581 55.6081 91.952 55.5634 92.3458C55.5186 92.7397 55.4828 92.9455 55.447 93.2409L55.3396 94.1897C55.0564 96.4399 54.9248 98.7066 54.9458 100.974Z" fill="#EB9481"/>
<path d="M55.8408 90.3677C56.6047 92.4736 57.8166 94.3886 59.3929 95.9804C60.9692 97.5721 62.8723 98.8027 64.9707 99.5871L66.5819 92.0773L57.7742 86.4382L56.5032 85.6953C56.5032 85.6953 56.181 87.7719 55.8408 90.3677Z" fill="#263238"/>
<path d="M77.171 79.8233C79.7936 93.0707 72.1495 96.1319 69.2942 96.6958C66.7074 97.206 57.8102 98.6023 53.836 85.7041C49.8618 72.8058 55.1966 67.3995 61.0683 65.9226C66.9401 64.4457 74.5573 66.585 77.171 79.8233Z" fill="#EB9481"/>
<path d="M73.3038 77.7963C73.0085 77.8634 72.7097 77.9142 72.4087 77.9485C72.0948 78.0516 71.756 78.0516 71.442 77.9485C71.3513 77.8936 71.2811 77.8105 71.2423 77.7118C71.2035 77.6131 71.1982 77.5044 71.2272 77.4025C71.3162 77.2093 71.4552 77.0435 71.63 76.9223C71.8047 76.8011 72.0087 76.7289 72.2208 76.7132C72.6433 76.6146 73.0874 76.6785 73.4649 76.8923C73.5425 76.9485 73.6027 77.0255 73.6385 77.1144C73.6744 77.2033 73.6845 77.3004 73.6676 77.3948C73.6508 77.4891 73.6078 77.5768 73.5434 77.6478C73.4791 77.7188 73.3961 77.7703 73.3038 77.7963Z" fill="#263238"/>
<path d="M63.8967 80.5084C64.1983 80.4623 64.4972 80.3996 64.7918 80.3204C65.1228 80.3014 65.4378 80.1722 65.6869 79.9534C65.7546 79.8716 65.7916 79.7687 65.7916 79.6625C65.7916 79.5563 65.7546 79.4535 65.6869 79.3716C65.5363 79.2212 65.3474 79.115 65.1407 79.0645C64.9339 79.014 64.7173 79.0211 64.5144 79.0852C64.0833 79.1408 63.6897 79.3584 63.4134 79.6939C63.3514 79.7747 63.315 79.8723 63.309 79.9741C63.303 80.0758 63.3275 80.177 63.3795 80.2646C63.4315 80.3523 63.5086 80.4223 63.6008 80.4658C63.693 80.5092 63.796 80.5241 63.8967 80.5084Z" fill="#263238"/>
<path d="M65.8836 82.2109C65.8836 82.2109 65.821 82.2109 65.8299 82.3004C65.9911 83.1955 66.0269 84.2696 65.2571 84.6903C65.2571 84.6903 65.2571 84.753 65.2571 84.744C66.2506 84.4487 66.188 83.0344 65.8836 82.2109Z" fill="#263238"/>
<path d="M64.935 81.3809C63.4581 81.4883 63.7803 84.4421 65.1498 84.3347C66.5193 84.2273 66.1702 81.2914 64.935 81.3809Z" fill="#263238"/>
<path d="M64.3711 81.6059C64.1294 81.7939 63.9146 82.1161 63.6013 82.1877C63.288 82.2593 62.9479 81.9819 62.7062 81.7133C62.7599 82.2772 63.0374 82.8322 63.655 82.8501C64.2727 82.868 64.5501 82.322 64.6307 81.7402C64.577 81.6686 64.4696 81.5254 64.3711 81.6059Z" fill="#263238"/>
<path d="M71.4959 81.3516C71.4959 81.3516 71.5675 81.3516 71.5675 81.4232C71.6391 82.3183 71.8629 83.3834 72.7222 83.5982V83.6519C71.6928 83.6161 71.4064 82.2287 71.4959 81.3516Z" fill="#263238"/>
<path d="M72.2118 80.3131C73.6708 80.0535 74.0826 82.9983 72.731 83.231C71.3794 83.4638 70.9856 80.5368 72.2118 80.3131Z" fill="#263238"/>
<path d="M72.8475 80.4205C73.107 80.5458 73.3756 80.7965 73.653 80.7696C73.9305 80.7428 74.1722 80.3937 74.3333 80.0625C74.3333 80.0625 74.3333 80.0625 74.387 80.0625C74.4765 80.6175 74.387 81.2351 73.85 81.4141C73.3129 81.5931 72.9549 81.1545 72.7311 80.6085C72.6953 80.5369 72.749 80.3668 72.8475 80.4205Z" fill="#263238"/>
<path d="M67.5487 89.9298C67.7814 90.1357 68.0231 90.4132 68.3542 90.4221C68.6962 90.391 69.0281 90.2905 69.3299 90.1267C69.3299 90.1267 69.3836 90.1267 69.3299 90.1267C69.211 90.315 69.0434 90.4676 68.8449 90.5685C68.6463 90.6693 68.4242 90.7146 68.2021 90.6996C68.0309 90.6625 67.8731 90.5796 67.7454 90.4598C67.6177 90.34 67.525 90.1877 67.4771 90.0193C67.4771 90.0193 67.4771 89.903 67.5487 89.9298Z" fill="#263238"/>
<path d="M70.9588 86.1685C70.9588 86.1685 71.3169 87.5022 71.3974 88.1467C71.3974 88.2093 71.2542 88.2541 71.0304 88.2988C70.4896 88.4661 69.9134 88.482 69.3642 88.3447C68.815 88.2074 68.314 87.9222 67.9155 87.5201C67.9155 87.4664 67.9155 87.3859 68.005 87.4217C68.894 87.8826 69.9085 88.0428 70.8962 87.8781C70.8962 87.6991 70.207 85.6046 70.3054 85.5867C70.8112 85.5703 71.3169 85.6214 71.8092 85.7389C71.1557 82.9283 70.019 80.243 69.4372 77.4325C69.4372 77.334 69.5625 77.2803 69.5983 77.3698C70.8713 80.2085 71.8549 83.1683 72.5342 86.2043C72.6147 86.5624 71.2363 86.2401 70.9588 86.1685Z" fill="#263238"/>
<path d="M70.9408 88.0667C70.6485 88.6363 70.2137 89.1204 69.6787 89.472C69.3816 89.6568 69.0343 89.7444 68.6851 89.7226C67.9333 89.6599 67.79 88.9976 67.79 88.4068C67.8133 88.1031 67.8703 87.8028 67.9601 87.5117C68.868 88.0128 69.9134 88.2074 70.9408 88.0667Z" fill="#263238"/>
<path d="M69.6787 89.4675C69.3816 89.6523 69.0343 89.7399 68.6851 89.7181C67.9333 89.6555 67.79 88.9931 67.79 88.4023C68.1791 88.3376 68.5787 88.4079 68.9223 88.6017C69.2659 88.7955 69.5328 89.101 69.6787 89.4675Z" fill="#FF9ABB"/>
<path d="M55.3125 86.8687C57.8456 86.8687 57.6755 81.0506 57.6755 81.0506C57.6755 81.0506 68.0228 77.7477 67.7005 69.0027C69.5345 72.3214 72.5767 74.8058 76.1949 75.9396C76.1949 75.9396 74.4853 66.5412 66.7249 65.7625C66.7249 65.7625 56.9416 63.6948 52.7525 71.8222C48.5635 79.9496 53.6118 86.8955 55.3125 86.8687Z" fill="#263238"/>
<path d="M67.6472 68.3555C67.956 69.6685 67.9835 71.0321 67.7278 72.3565C67.4953 73.7039 66.9831 74.9876 66.224 76.1248C66.0362 76.4096 65.8299 76.6817 65.6064 76.9394L65.2931 77.3422C65.1768 77.4675 65.0515 77.5838 64.9261 77.7002C64.8008 77.8166 64.4428 78.1746 64.1922 78.3984L63.3687 79.007C63.2344 79.1055 63.1002 79.2039 62.9569 79.2934L62.5184 79.5441L61.6233 80.0364C61.0146 80.3049 60.388 80.5376 59.7615 80.7614C60.3343 80.4123 60.9251 80.1259 61.4801 79.7768L62.3035 79.2218L62.7063 78.9444C62.8406 78.8459 62.9569 78.7385 63.0823 78.6311L63.8252 78.0045C64.0669 77.7808 64.2817 77.5391 64.5054 77.3064L64.8456 76.9573L65.141 76.5724C65.3448 76.3246 65.5331 76.0646 65.7049 75.7937C66.431 74.7003 66.9611 73.4887 67.2713 72.2133C67.4316 71.5814 67.5423 70.938 67.6025 70.2889C67.6687 69.6466 67.6837 69.0001 67.6472 68.3555Z" fill="#263238"/>
<path d="M51.3653 78.9062L50.7388 80.1773L54.9278 83.2385L56.2704 80.3831L51.3653 78.9062ZM54.6324 81.9317L51.7413 80.052L51.8755 79.7566L55.1247 80.9292L54.6324 81.9317Z" fill="#7B58F4"/>
<path d="M51.5443 76.663L51.4458 78.0773L56.4852 79.3394L56.6552 76.1797L51.5443 76.663ZM55.7154 78.2294L52.323 77.585V77.2538L55.778 77.1195L55.7154 78.2294Z" fill="#7B58F4"/>
<path d="M57.2553 85.7275C57.2553 85.7275 53.8629 81.8518 52.0817 83.1049C50.3004 84.358 53.1558 90.194 55.474 90.7758C55.7665 90.8732 56.0757 90.9102 56.3828 90.8844C56.69 90.8586 56.9887 90.7706 57.2608 90.6257C57.5329 90.4809 57.7727 90.2822 57.9656 90.0418C58.1585 89.8014 58.3006 89.5243 58.3831 89.2273L57.2553 85.7275Z" fill="#EB9481"/>
<path d="M52.9407 84.7621C52.9407 84.7621 52.9407 84.8068 52.9407 84.8158C53.6963 85.0957 54.3847 85.5311 54.9614 86.0939C55.538 86.6567 55.9901 87.3343 56.2883 88.0829C56.1807 87.9363 56.0425 87.8148 55.8832 87.727C55.724 87.6392 55.5475 87.5871 55.3661 87.5743C55.1847 87.5615 55.0027 87.5884 54.8327 87.653C54.6627 87.7177 54.5089 87.8185 54.3818 87.9486C54.3818 87.9486 54.3818 88.0381 54.4355 88.0292C54.6995 87.9108 54.9937 87.8774 55.2775 87.9335C55.5613 87.9896 55.8207 88.1325 56.0198 88.3424C56.3584 88.6977 56.6584 89.0877 56.9149 89.5061C56.9954 89.6403 57.246 89.5061 57.1744 89.3807C56.9596 87.331 55.1068 84.7263 52.9407 84.7621Z" fill="#263238"/>
<path d="M47.1136 104.519C35.7281 124.158 18.7124 169.234 15.6333 175.679C13.5478 180.056 36.4263 191.594 37.4019 188.407C38.6371 184.335 54.516 131.829 55.5543 108.404C56.0377 97.5556 50.7566 98.2359 47.1136 104.519Z" fill="#EB9481"/>
<path d="M28.0932 198.426C29.3015 197.37 29.8833 197.997 29.3373 200.789C28.7913 203.582 24.3696 214.216 28.2006 215.424C32.0316 216.632 38.0465 201.604 38.6015 196.887C39.1565 192.17 38.2972 184.355 38.2972 184.355C36.5339 187.059 31.6735 193.181 28.0932 198.426Z" fill="#EB9481"/>
<path d="M34.8062 214.844L6.16339 209.688C5.2683 209.616 4.7223 209.026 4.87447 208.363L7.49708 196.655C7.64057 196.309 7.89546 196.021 8.22136 195.836C8.54726 195.651 8.92552 195.581 9.2962 195.635L37.9391 200.764C38.8341 200.844 39.3802 201.435 39.228 202.089L36.6054 213.796C36.4705 214.15 36.2184 214.448 35.891 214.638C35.5635 214.829 35.1807 214.901 34.8062 214.844Z" fill="#E5DEFD"/>
<path d="M35.1374 213.465L6.44084 208.31C5.54575 208.229 5.0087 207.638 5.15191 206.985L7.78347 195.277C7.91662 194.924 8.16711 194.627 8.49301 194.436C8.81891 194.246 9.20042 194.173 9.57365 194.23L38.2702 199.386C39.1653 199.457 39.7023 200.048 39.5591 200.701L36.9544 212.418C36.8176 212.775 36.5623 213.073 36.2315 213.264C35.9007 213.454 35.5144 213.526 35.1374 213.465Z" fill="#E5DEFD"/>
<path d="M34.6004 209.75C33.9381 209.499 33.3115 209.75 33.2041 210.305C33.1897 210.623 33.2812 210.937 33.4642 211.198C33.6472 211.458 33.9114 211.651 34.2156 211.746C34.8779 211.996 35.5045 211.746 35.6119 211.2C35.6283 210.88 35.5378 210.564 35.3547 210.301C35.1715 210.039 34.9061 209.845 34.6004 209.75Z" fill="#263238"/>
<path d="M17.164 173.617C11.3191 181.494 6.14548 190.767 6.02017 201.016C5.98225 202.154 6.32564 203.273 6.99582 204.193C6.86155 208.776 8.98291 210.226 8.98291 210.226C10.1644 214.532 12.5633 215.713 12.5633 215.713C12.5633 215.713 12.9034 219.41 15.5081 219.356C18.1128 219.303 19.545 213.243 21.7737 208.821C26.9921 198.671 36.4801 187.142 38.2702 184.367L17.164 173.617Z" fill="#EB9481"/>
<path d="M19.0256 195.779C17.4687 198.734 16.114 201.79 14.9708 204.927C13.9302 208.445 13.1523 212.035 12.6436 215.668C12.6436 215.692 12.6342 215.715 12.6174 215.732C12.6006 215.748 12.5778 215.758 12.5541 215.758C12.5304 215.758 12.5076 215.748 12.4908 215.732C12.474 215.715 12.4646 215.692 12.4646 215.668C12.7495 208.571 14.9721 201.686 18.8913 195.762C18.9808 195.574 19.142 195.636 19.0256 195.779Z" fill="#263238"/>
<path d="M13.3598 191.744C12.0887 194.761 9.88681 200.069 9.09019 210.237C9.09019 210.237 9.03648 210.237 9.02753 210.237C8.67928 203.783 10.1295 197.36 13.2165 191.682C13.315 191.503 13.4493 191.539 13.3598 191.744Z" fill="#263238"/>
<path d="M10.281 189.63C8.31179 194.84 7.72103 198.375 7.02286 204.166H6.96021C7.06762 197.498 7.85529 195.081 10.1109 189.532C10.1915 189.371 10.3526 189.424 10.281 189.63Z" fill="#263238"/>
</svg>
