<svg xmlns="http://www.w3.org/2000/svg" width="38" height="38" viewBox="0 0 38 38" fill="none">
  <path d="M6.25 29.1667C6.25 25 14.5833 22.7083 18.75 22.7083C22.9167 22.7083 31.25 25 31.25 29.1667V31.25H6.25M25 12.5C25 14.1576 24.3415 15.7473 23.1694 16.9194C21.9973 18.0915 20.4076 18.75 18.75 18.75C17.0924 18.75 15.5027 18.0915 14.3306 16.9194C13.1585 15.7473 12.5 14.1576 12.5 12.5C12.5 10.8424 13.1585 9.25268 14.3306 8.08058C15.5027 6.90848 17.0924 6.25 18.75 6.25C20.4076 6.25 21.9973 6.90848 23.1694 8.08058C24.3415 9.25268 25 10.8424 25 12.5ZM0 4.16667V33.3333C0 34.4384 0.438987 35.4982 1.22039 36.2796C2.00179 37.061 3.0616 37.5 4.16667 37.5H33.3333C34.4384 37.5 35.4982 37.061 36.2796 36.2796C37.061 35.4982 37.5 34.4384 37.5 33.3333V4.16667C37.5 3.0616 37.061 2.00179 36.2796 1.22039C35.4982 0.438987 34.4384 0 33.3333 0H4.16667C3.0616 0 2.00179 0.438987 1.22039 1.22039C0.438987 2.00179 0 3.0616 0 4.16667Z" fill="#7B58F4"/>
</svg>