<svg xmlns="http://www.w3.org/2000/svg" width="28" height="28" viewBox="0 0 28 28" fill="none">
  <g clip-path="url(#clip0_531_1948)">
    <path d="M17.5003 22.1654C17.5005 22.754 17.2782 23.321 16.8779 23.7527C16.4776 24.1843 15.929 24.4487 15.342 24.4929L15.167 24.4987H12.8336C12.245 24.4989 11.678 24.2766 11.2463 23.8763C10.8147 23.476 10.5503 22.9274 10.5061 22.3404L10.5003 22.1654H17.5003ZM14.0003 2.33203C16.1178 2.332 18.1525 3.15441 19.6752 4.62579C21.198 6.09716 22.0897 8.10247 22.1623 10.2187L22.167 10.4987V14.89L24.2926 19.1414C24.3854 19.3269 24.4318 19.5321 24.4279 19.7395C24.4241 19.9468 24.37 20.1502 24.2703 20.332C24.1706 20.5139 24.0284 20.669 23.8557 20.7838C23.683 20.8987 23.4851 20.97 23.2788 20.9917L23.1446 20.9987H4.85598C4.6485 20.9988 4.44411 20.9485 4.2603 20.8523C4.0765 20.756 3.91877 20.6167 3.80063 20.4461C3.68249 20.2756 3.60747 20.0789 3.58198 19.873C3.5565 19.6671 3.58132 19.4581 3.65431 19.2639L3.70798 19.1414L5.83364 14.89V10.4987C5.83364 8.33276 6.69406 6.25554 8.22561 4.72399C9.75715 3.19245 11.8344 2.33203 14.0003 2.33203Z" fill="#191231"/>
    <circle cx="22.75" cy="6.41797" r="5.25" fill="#A790F8"/>
  </g>
  <defs>
    <clipPath id="clip0_531_1948">
      <rect width="28" height="28" fill="white"/>
    </clipPath>
  </defs>
</svg>