<svg width="46" height="46" viewBox="0 0 46 46" fill="none" xmlns="http://www.w3.org/2000/svg">
<rect x="3" y="3" width="40" height="40" rx="20" fill="#D1FADF"/>
<g clip-path="url(#clip0_4309_12720)">
<path d="M31.3332 22.2316V22.9983C31.3321 24.7953 30.7503 26.5438 29.6743 27.9831C28.5983 29.4224 27.0859 30.4753 25.3626 30.9848C23.6394 31.4944 21.7976 31.4332 20.1119 30.8104C18.4262 30.1877 16.987 29.0367 16.009 27.5291C15.0309 26.0216 14.5663 24.2383 14.6846 22.4452C14.8028 20.6521 15.4975 18.9452 16.6651 17.5792C17.8326 16.2131 19.4105 15.2611 21.1633 14.865C22.9162 14.469 24.7501 14.6502 26.3915 15.3816M31.3332 16.3316L22.9998 24.6733L20.4998 22.1733" stroke="#039855" stroke-width="1.66667" stroke-linecap="round" stroke-linejoin="round"/>
</g>
<rect x="3" y="3" width="40" height="40" rx="20" stroke="#ECFDF3" stroke-width="6"/>
<defs>
<clipPath id="clip0_4309_12720">
<rect width="20" height="20" fill="white" transform="translate(13 13)"/>
</clipPath>
</defs>
</svg>
