<svg width="34" height="34" viewBox="0 0 34 34" fill="none" xmlns="http://www.w3.org/2000/svg">
<rect width="24" height="24" transform="translate(5 5)" fill="white"/>
<path d="M17 17C19.7614 17 22 14.7614 22 12C22 9.23858 19.7614 7 17 7C14.2386 7 12 9.23858 12 12C12 14.7614 14.2386 17 17 17Z" stroke="#292D32" stroke-width="1.5" stroke-linecap="round" stroke-linejoin="round"/>
<path d="M8.41016 27C8.41016 23.13 12.2602 20 17.0002 20C17.9602 20 18.8902 20.13 19.7602 20.37" stroke="#292D32" stroke-width="1.5" stroke-linecap="round" stroke-linejoin="round"/>
<path d="M27 23C27 23.32 26.96 23.63 26.88 23.93C26.79 24.33 26.63 24.72 26.42 25.06C25.73 26.22 24.46 27 23 27C21.97 27 21.04 26.61 20.34 25.97C20.04 25.71 19.78 25.4 19.58 25.06C19.21 24.46 19 23.75 19 23C19 21.92 19.43 20.93 20.13 20.21C20.86 19.46 21.88 19 23 19C24.18 19 25.25 19.51 25.97 20.33C26.61 21.04 27 21.98 27 23Z" stroke="#292D32" stroke-width="1.5" stroke-miterlimit="10" stroke-linecap="round" stroke-linejoin="round"/>
<path d="M24.4917 22.9844H21.5117" stroke="#292D32" stroke-width="1.5" stroke-miterlimit="10" stroke-linecap="round" stroke-linejoin="round"/>
<path d="M23 21.5234V24.5134" stroke="#292D32" stroke-width="1.5" stroke-miterlimit="10" stroke-linecap="round" stroke-linejoin="round"/>
</svg>
