<svg xmlns="http://www.w3.org/2000/svg" width="22" height="20" viewBox="0 0 22 20" fill="none">
  <path fill-rule="evenodd" clip-rule="evenodd" d="M15.1256 10C15.1256 9.80109 15.0465 9.61032 14.9059 9.46967C14.7652 9.32902 14.5745 9.25 14.3756 9.25H3.40256L5.36356 7.57C5.43841 7.50591 5.49991 7.42771 5.54454 7.33986C5.58917 7.25201 5.61606 7.15623 5.62368 7.05798C5.63129 6.95974 5.61948 6.86096 5.58892 6.76728C5.55836 6.6736 5.50964 6.58685 5.44556 6.512C5.38147 6.43715 5.30327 6.37565 5.21542 6.33102C5.12757 6.28639 5.03178 6.25949 4.93354 6.25188C4.8353 6.24427 4.73651 6.25608 4.64283 6.28664C4.54915 6.3172 4.46241 6.36591 4.38756 6.43L0.887558 9.43C0.805223 9.50041 0.739119 9.58782 0.693794 9.68622C0.64847 9.78462 0.625 9.89167 0.625 10C0.625 10.1083 0.64847 10.2154 0.693794 10.3138C0.739119 10.4122 0.805223 10.4996 0.887558 10.57L4.38756 13.57C4.53873 13.6994 4.73513 13.7635 4.93354 13.7481C5.13195 13.7327 5.31613 13.6392 5.44556 13.488C5.57498 13.3368 5.63905 13.1404 5.62368 12.942C5.6083 12.7436 5.51473 12.5594 5.36356 12.43L3.40356 10.75H14.3756C14.5745 10.75 14.7652 10.671 14.9059 10.5303C15.0465 10.3897 15.1256 10.1989 15.1256 10Z" fill="#DC362E"/>
  <path d="M8.37556 6C8.37556 6.702 8.37556 7.053 8.54456 7.306C8.61734 7.41478 8.71078 7.50821 8.81956 7.581C9.07256 7.75 9.42356 7.75 10.1256 7.75H14.3756C14.9723 7.75 15.5446 7.98705 15.9665 8.40901C16.3885 8.83097 16.6256 9.40326 16.6256 10C16.6256 10.5967 16.3885 11.169 15.9665 11.591C15.5446 12.0129 14.9723 12.25 14.3756 12.25H10.1256C9.42356 12.25 9.07256 12.25 8.81956 12.418C8.71068 12.4911 8.61724 12.5849 8.54456 12.694C8.37556 12.947 8.37556 13.298 8.37556 14C8.37556 16.828 8.37556 18.243 9.25456 19.121C10.1326 20 11.5466 20 14.3746 20H15.3746C18.2046 20 19.6176 20 20.4966 19.121C21.3756 18.243 21.3756 16.828 21.3756 14V6C21.3756 3.172 21.3756 1.757 20.4966 0.879C19.6176 -5.96046e-08 18.2036 0 15.3756 0H14.3756C11.5466 0 10.1326 -5.96046e-08 9.25456 0.879C8.37556 1.757 8.37556 3.172 8.37556 6Z" fill="#DC362E"/>
</svg>