<svg width="20" height="20" viewBox="0 0 20 20" fill="none" xmlns="http://www.w3.org/2000/svg">
<path d="M14.1654 7.50521V5.83854C14.1654 3.50521 12.332 1.67188 9.9987 1.67188C7.66536 1.67188 5.83203 3.50521 5.83203 5.83854V7.50521C4.41536 7.50521 3.33203 8.58854 3.33203 10.0052V15.8385C3.33203 17.2552 4.41536 18.3385 5.83203 18.3385H14.1654C15.582 18.3385 16.6654 17.2552 16.6654 15.8385V10.0052C16.6654 8.58854 15.582 7.50521 14.1654 7.50521ZM7.4987 5.83854C7.4987 4.42188 8.58203 3.33854 9.9987 3.33854C11.4154 3.33854 12.4987 4.42188 12.4987 5.83854V7.50521H7.4987V5.83854Z" fill="#525256"/>
</svg>
