<svg xmlns="http://www.w3.org/2000/svg" width="20" height="20" viewBox="0 0 20 20" fill="none">
  <path d="M15 0.914365C15.2626 0.651721 15.5744 0.44338 15.9176 0.301239C16.2608 0.159097 16.6286 0.0859375 17 0.0859375C17.3714 0.0859375 17.7392 0.159097 18.0824 0.301239C18.4256 0.44338 18.7374 0.651721 19 0.914365C19.2626 1.17701 19.471 1.48881 19.6131 1.83197C19.7553 2.17513 19.8284 2.54293 19.8284 2.91436C19.8284 3.2858 19.7553 3.6536 19.6131 3.99676C19.471 4.33992 19.2626 4.65172 19 4.91436L5.5 18.4144L0 19.9144L1.5 14.4144L15 0.914365Z" fill="#191231"/>
</svg>